<svg width="939" height="846" viewBox="0 0 939 846" fill="none" xmlns="http://www.w3.org/2000/svg">
<path d="M461.41 212.96C462.03 228.01 462.97 241.41 458.82 256.77C455.69 268.32 448.99 275.19 439.11 282.16" stroke="#F18B75" stroke-width="2"/>
<path d="M439.11 282.16C435.29 283.133 431.32 283.356 427.2 282.83C427.066 282.812 426.931 282.83 426.807 282.882C426.683 282.935 426.575 283.02 426.496 283.128C426.416 283.237 426.367 283.365 426.353 283.499C426.34 283.632 426.363 283.768 426.42 283.89C430.99 293.78 436.09 305.08 442.33 312.99C451.88 325.11 463.65 332.34 478.03 337.91C478.332 338.028 478.599 338.221 478.804 338.472C479.01 338.723 479.147 339.023 479.203 339.342C479.26 339.662 479.233 339.99 479.125 340.296C479.018 340.602 478.833 340.875 478.59 341.09C474.92 344.31 467.08 341.26 463.49 339.21C450.877 331.996 440.393 322.536 432.04 310.83C428.11 305.32 424.68 297.27 420.94 291.79C418.98 288.91 416.06 287.773 412.18 288.38C412.095 288.393 412.009 288.387 411.926 288.363C411.844 288.34 411.768 288.298 411.703 288.242C411.638 288.186 411.587 288.116 411.552 288.038C411.517 287.96 411.499 287.875 411.5 287.79C411.62 280.08 413.46 272.65 403.95 270.59C399.097 269.536 393.743 269.473 387.89 270.4" stroke="#FBE6D8" stroke-width="2"/>
<path d="M387.89 270.4C388.177 265.533 388.12 262.066 387.72 260C386.8 255.18 375.19 256.17 372.47 256.54C372.163 256.58 372.01 256.446 372.01 256.14C372.11 246.1 371.56 240.04 359.38 240.51C359 240.523 358.793 240.34 358.76 239.96C357.77 229.29 356.76 221.52 353.4 212.82C348.86 201.1 329.01 201.13 319.37 203.95C306.15 207.8 305.25 226.74 303.75 239.19C302.043 253.383 301.093 267.63 300.9 281.93C300.9 282.256 300.737 282.386 300.41 282.32C296.217 281.393 291.733 281.07 286.96 281.35" stroke="#7E9BA5" stroke-width="2"/>
<path d="M286.96 281.35C282.89 269.6 272.15 260.64 259.47 264.17C253.12 265.94 251.06 272.47 248.69 277.66C248.605 277.851 248.462 278.01 248.28 278.114C248.099 278.218 247.889 278.261 247.681 278.238C247.472 278.214 247.275 278.126 247.119 277.984C246.963 277.843 246.854 277.656 246.81 277.45C245.72 272.18 248.05 260.89 237.83 264.09C237.645 264.15 237.479 264.258 237.349 264.402C237.219 264.546 237.13 264.721 237.09 264.91C235.503 272.476 235.37 279.84 236.69 287C237.2 289.78 235.56 292.72 232.56 292.67C229.36 292.61 227.85 287.25 228.46 284.69C229.887 278.683 229.887 272.536 228.46 266.25C227.15 260.45 222.74 260.56 217.91 261.09C217.477 261.136 217.347 261.363 217.52 261.77C218.04 263.01 218.817 264.073 219.85 264.96C220.112 265.182 220.309 265.473 220.42 265.8C222.59 272.22 221.78 279.97 221.28 286.66C220.94 291.22 216.66 293.75 212.52 293.86C208.39 293.97 204.91 290.69 202.39 287.68C202.317 287.594 202.271 287.489 202.259 287.378C202.246 287.266 202.267 287.153 202.32 287.052C202.372 286.952 202.453 286.869 202.553 286.813C202.652 286.758 202.766 286.732 202.88 286.74C205.413 286.953 207.82 287.316 210.1 287.83C212.04 288.27 213.34 287.75 213.73 285.76C215.023 279.186 215.127 272.783 214.04 266.55C212.11 255.54 191.85 259.6 188.08 267.05C187.931 267.341 187.892 267.674 187.97 267.99C188.837 271.576 188.267 274.366 186.26 276.36" stroke="#F18B75" stroke-width="2"/>
<path d="M186.26 276.36C179.91 275.16 172.22 276.96 165.7 277.02C165.36 277.027 165.19 276.857 165.19 276.51C165.317 260.357 165.28 244.21 165.08 228.07C164.95 217.36 164.26 206.4 151.74 203.26C143.56 201.207 135.917 201.13 128.81 203.03C116.07 206.44 112.8 224.42 111.72 235.76C111.712 235.845 111.686 235.926 111.642 235.999C111.598 236.072 111.538 236.134 111.467 236.18C111.396 236.226 111.315 236.256 111.23 236.266C111.146 236.277 111.06 236.268 110.98 236.24C108.367 235.333 105.683 234.787 102.93 234.6C94.1599 234 95.1999 246.74 95.8499 252.23C95.8966 252.643 95.7166 252.81 95.3099 252.73C83.1799 250.21 80.2999 251.75 79.9599 264.47" stroke="#7E9BA5" stroke-width="2"/>
<path d="M79.9599 264.47C77.2899 263.26 59.9899 257.44 60.0599 263.06C60.0999 266.426 60.0566 269.82 59.9299 273.24C59.9166 273.613 59.7233 273.786 59.3499 273.76C49.4833 273.02 39.5933 272.61 29.6799 272.53C27.8699 272.52 25.1799 272.28 24.2099 274.02C21.3766 279.073 20.9399 284.203 22.8999 289.41C23.0933 289.93 23.4699 290.2 24.0299 290.22L57.5299 291.27C57.8563 291.278 58.1666 291.414 58.3946 291.649C58.6225 291.885 58.7501 292.201 58.7499 292.53V303.53C58.7504 303.871 58.8788 304.199 59.1099 304.45C62.0599 307.62 71.7699 308.55 75.9299 308.97C76.0491 308.981 76.1693 308.967 76.283 308.93C76.3967 308.893 76.5014 308.834 76.5906 308.755C76.6797 308.676 76.7515 308.58 76.8012 308.472C76.851 308.365 76.8778 308.248 76.8799 308.13L77.0199 301.82C77.0229 301.692 76.9769 301.568 76.8913 301.473C76.8058 301.378 76.6872 301.32 76.5599 301.31C70.3266 300.87 66.0333 298.043 63.6799 292.83C63.1466 291.65 63.5233 290.913 64.8099 290.62" stroke="#FBE6D8" stroke-width="2"/>
<path d="M64.8099 290.62C67.1299 296.613 71.6933 299.496 78.4999 299.27C78.8333 299.256 78.9999 299.416 78.9999 299.75L79.0099 310.47C79.0099 312.483 80.0166 313.516 82.0299 313.57L91.5599 313.82C91.6868 313.822 91.8083 313.871 91.9008 313.958C91.9933 314.045 92.05 314.163 92.0599 314.29C93.6899 330.09 90.7499 334.4 109.29 334.51C109.452 334.51 109.608 334.572 109.725 334.684C109.842 334.795 109.912 334.948 109.92 335.11C110.293 344.21 111.663 352.75 114.03 360.73C117.86 373.61 135.51 374.23 146.34 372.82C157.27 371.4 160.86 364.32 162.72 353.99C163.92 347.323 164.573 339.076 164.68 329.25C164.813 317.263 164.92 305.34 165 293.48C165 293.367 165.03 293.256 165.088 293.159C165.146 293.061 165.229 292.982 165.328 292.927C165.427 292.873 165.539 292.847 165.652 292.851C165.765 292.855 165.875 292.889 165.97 292.95C166.89 293.53 168.08 293.896 169.54 294.05C176.5 294.783 182.43 292.44 187.33 287.02" stroke="#7E9BA5" stroke-width="2"/>
<path d="M187.33 287.02L189.65 296.93C189.702 297.157 189.681 297.392 189.59 297.6C188.057 301.213 187.55 304.96 188.07 308.84C188.117 309.206 188.273 309.523 188.54 309.79C190.35 311.62 192.9 313.15 194.14 315.3C197.293 320.8 198.963 326.79 199.15 333.27C199.93 360.17 193.56 387.11 187.89 413.27C187.871 413.368 187.818 413.455 187.739 413.516C187.661 413.576 187.562 413.605 187.462 413.598C187.362 413.591 187.268 413.547 187.195 413.476C187.123 413.405 187.079 413.31 187.07 413.21C186.897 410.95 186.927 408.606 187.16 406.18C188.34 394.02 189.12 382.48 191.31 369.87C194.303 352.63 194.183 335.35 190.95 318.03C190.557 315.93 189.477 314.353 187.71 313.3C187.343 313.08 187.153 313.183 187.14 313.61C187.013 317.65 186.78 321.686 186.44 325.72C185.08 342.18 188.49 358.68 188.06 374.43C187.773 384.89 186.487 394.806 184.2 404.18C174.84 442.59 171.61 481.27 198.03 513.97C225.92 548.48 275.98 537.36 311.74 525.23C342.12 514.93 367.58 497.4 385.18 470.42C387.9 466.25 389.73 461.47 391.92 456.8" stroke="#F18B75" stroke-width="2"/>
<path d="M391.92 456.8C394.76 462.286 396.95 468.186 398.49 474.5C405.19 502.12 408.71 527.97 404.23 555.95C403.79 558.703 403.013 561.36 401.9 563.92C392.85 584.68 380.77 603.66 369.43 623.17C353.29 650.91 349 680.87 354.08 712.37C356.83 729.44 359.33 746.44 362.7 763.57C364.86 774.51 366.937 785.476 368.93 796.47C368.997 796.843 369.223 797.03 369.61 797.03C371.717 797.017 375.533 796.96 381.06 796.86C453.5 795.61 513.44 793.82 580.34 792.41C581.193 792.39 581.6 791.953 581.56 791.1C580.63 772.83 580 754.08 577.91 735.82C573.51 697.45 566.68 663.09 560.7 626.81C558.66 614.44 557.37 603.46 557.5 592.25C557.7 575.08 563.18 557.71 569.03 541.26C575.31 523.6 581.83 506.03 588.59 488.55C597.2 466.28 604.14 443.56 605.84 420.76C606.12 417.05 604.86 413.13 605.03 409.42C605.94 389.39 601.25 372.07 595.35 348.68C591.51 333.45 584.59 314.51 575.05 301.08C571.337 295.853 567.857 291.773 564.61 288.84C557.32 282.25 549.58 285.47 540.54 284.86" stroke="#7E9BA5" stroke-width="2"/>
<path d="M540.54 284.86C528.39 281.1 512.74 272.46 507.24 260.74C503.32 252.39 504.54 238.82 505.91 229.95C505.924 229.853 505.918 229.753 505.892 229.659C505.867 229.564 505.822 229.476 505.761 229.399C505.7 229.323 505.624 229.261 505.537 229.216C505.451 229.172 505.357 229.146 505.26 229.14C498.86 228.72 492.68 227.33 486.72 224.97C486.638 224.938 486.55 224.929 486.464 224.941C486.377 224.954 486.296 224.988 486.226 225.041C486.157 225.095 486.103 225.165 486.068 225.245C486.034 225.325 486.021 225.413 486.03 225.5C486.857 232.08 486.613 238.683 485.3 245.31C482.49 259.49 472.38 265.28 460.65 270.96C460.323 271.113 460.19 271.013 460.25 270.66C460.283 270.433 460.42 270.253 460.66 270.12C476.06 261.41 481.75 253.94 482.91 236.1C483.26 230.61 484.01 223.67 479.44 219.56C476.573 216.973 473.98 214.146 471.66 211.08C471.393 210.72 471.273 210.3 471.3 209.82C471.305 209.757 471.327 209.697 471.365 209.647C471.403 209.597 471.454 209.559 471.513 209.536C471.572 209.514 471.636 209.51 471.697 209.523C471.759 209.536 471.815 209.566 471.86 209.61C481.373 219.303 492.73 223.573 505.93 222.42C524.45 220.8 534.87 205.9 538 188.5C540.6 174.026 541.49 158.336 540.67 141.43C540.537 138.636 540.477 136.216 540.49 134.17" stroke="#F18B75" stroke-width="2"/>
<path d="M540.49 134.17C551.39 130.496 556.107 123.35 554.64 112.73C550.13 80.1098 503.18 71.0898 480.69 89.0198C474.19 94.1998 470.56 100.75 467.02 108.67C466.958 108.805 466.85 108.914 466.716 108.977C466.582 109.039 466.431 109.051 466.29 109.01C442.69 102.29 421.32 112.86 413.68 136.01C411.787 141.756 410.757 148.32 410.59 155.7C410.143 176.066 418.76 192.26 436.44 204.28C444.11 209.49 452.51 211.17 461.41 212.96" stroke="#7E9BA5" stroke-width="2"/>
<path d="M540.49 134.17C536.15 133.75 526 131.85 522.67 132.88C515.71 135.046 509.317 136.006 503.49 135.76C496.46 135.47 485.57 133.98 481.35 136.36C477.3 138.65 477.82 142.8 478.81 147.37C480.25 154.076 480.473 160.84 479.48 167.66C478.84 172.04 474.58 174.13 470.74 172.4C470.59 172.334 470.456 172.237 470.347 172.114C470.238 171.992 470.157 171.847 470.11 171.69C468.22 165.58 465.18 158.37 457.47 159.99C452.597 161.023 450.05 164.456 449.83 170.29C449.5 179 451.78 188.14 462.72 187.2C462.789 187.194 462.858 187.203 462.923 187.226C462.988 187.25 463.048 187.287 463.097 187.335C463.146 187.384 463.185 187.442 463.209 187.507C463.234 187.572 463.244 187.641 463.24 187.71L463.09 190.27" stroke="#F18B75" stroke-width="2"/>
<path d="M463.09 190.27C461.73 197.423 461.12 204.583 461.26 211.75" stroke="#7D847E" stroke-width="2"/>
<path d="M461.26 211.75C461.58 211.81 461.63 212.213 461.41 212.96" stroke="#F18B75" stroke-width="2"/>
<path d="M540.54 284.86C539.807 285.22 539.737 285.423 540.33 285.47" stroke="#F18B75" stroke-width="2"/>
<path d="M540.33 285.47C542.19 294.45 542.81 301.39 539.64 308.69C526.31 339.35 483.83 333.77 462.19 318.14C449.09 308.68 439.94 298.59 439.11 282.16" stroke="#FC998A" stroke-width="2"/>
<path d="M461.26 211.75L462.3 211.46C462.667 211.353 462.84 211.106 462.82 210.72C462.48 204.026 462.877 197.376 464.01 190.77C464.083 190.35 463.91 190.166 463.49 190.22L463.09 190.27" stroke="#FC998A" stroke-width="2"/>
<path d="M540.33 285.47C547.097 288.243 551.467 290.353 553.44 291.8C560.65 297.11 565.23 306.08 568.23 314.29C574.783 332.217 579.397 350.627 582.07 369.52C586.89 403.53 587 435.79 577.99 468.92C571.097 494.233 562.38 518.903 551.84 542.93C550.227 546.597 548.463 550.863 546.55 555.73C542.62 565.73 538.16 575.46 535.87 586.78C535.797 587.133 535.603 587.393 535.29 587.56C506.44 603.05 459 602.35 430.95 586.79C423.95 582.91 419.03 579.77 418.7 571.81C418.433 565.257 418.68 557.07 419.44 547.25C420.23 536.98 420.03 525.87 419.1 515.78C417.46 497.98 415.3 480.19 410.73 462.83C402.11 430.11 391.73 398.66 374.25 370.69C369.76 363.49 363.87 355.81 358.57 348.32C358.491 348.209 358.384 348.123 358.259 348.07C358.134 348.018 357.997 348.001 357.863 348.022C357.729 348.042 357.604 348.1 357.501 348.188C357.398 348.276 357.321 348.391 357.28 348.52C355.72 353.373 353.427 357.977 350.4 362.33" stroke="#7D847E" stroke-width="2"/>
<path d="M392.73 305.87C396.923 307.71 401.34 307.823 405.98 306.21C406.773 305.93 407.25 305.273 407.41 304.24C408.523 296.986 408.38 290.123 406.98 283.65C406.946 283.501 406.874 283.363 406.771 283.251C406.667 283.138 406.536 283.055 406.39 283.01C405.777 282.81 405.293 283.076 404.94 283.81" stroke="#FBE6D8" stroke-width="2"/>
<path d="M383.23 430.05C382.917 427.07 382.043 424.07 380.61 421.05" stroke="#7E9BA5" stroke-width="2"/>
<path d="M387.89 270.4L386.93 278.15C386.921 278.226 386.93 278.303 386.957 278.375C386.983 278.446 387.026 278.511 387.082 278.565C387.138 278.618 387.206 278.657 387.28 278.681C387.354 278.704 387.433 278.711 387.51 278.7C391.663 278.046 395.82 277.803 399.98 277.97C403.48 278.11 405.133 280.056 404.94 283.81" stroke="#7D847E" stroke-width="2"/>
<path d="M404.94 283.81C406.19 293.17 405.98 306.41 392.73 305.87" stroke="#7E9BA5" stroke-width="2"/>
<path d="M392.73 305.87L385.75 304.38C385.417 304.313 385.25 304.446 385.25 304.78C385.25 310.01 385.76 315.56 384.47 320.64C384.383 320.987 384.17 321.213 383.83 321.32C380.457 322.386 377.107 322.38 373.78 321.3C372.733 320.953 372.223 321.333 372.25 322.44C372.37 326.78 372.17 331.023 371.65 335.17C371.337 337.703 369.793 338.973 367.02 338.98C361.247 338.986 356.063 338.316 351.47 336.97C351.15 336.876 350.97 336.996 350.93 337.33L347.54 364.56" stroke="#7D847E" stroke-width="2"/>
<path d="M347.54 364.56C347.387 365.206 347.553 365.853 348.04 366.5" stroke="#F18B75" stroke-width="2"/>
<path d="M348.04 366.5C347.72 369.053 346.813 371.48 345.32 373.78" stroke="#7D847E" stroke-width="2"/>
<path d="M345.32 373.78C339.35 379.8 332.53 383.22 323.83 382.36C315.07 381.48 304.5 377.99 302.47 368.25C299.84 355.66 300.37 341.47 300.52 326.09" stroke="#F18B75" stroke-width="2"/>
<path d="M300.52 326.09C301.04 318.43 301.057 310.823 300.57 303.27C300.55 302.943 300.383 302.833 300.07 302.94C293.12 305.36 285.61 303.33 278.91 300.84C273.99 299.01 270.31 298.06 269.98 292.73" stroke="#7E9BA5" stroke-width="2"/>
<path d="M269.98 292.73C271.34 280.18 275.85 280.37 286.96 281.35" stroke="#F18B75" stroke-width="2"/>
<path d="M269.98 292.73C269.187 292.43 269.13 293.19 269.81 295.01C270.18 296.03 270.02 298.3 269.66 299.61C264.75 317.24 255.43 320.29 238.22 320.78C237.813 320.793 237.65 320.996 237.73 321.39C239.343 329.936 240.517 338.54 241.25 347.2C242.83 365.89 239.16 384.23 247.58 401.43C250.78 407.976 254.94 414.556 260.06 421.17C260.993 422.376 261.923 423.243 262.85 423.77C263.483 424.123 263.847 423.943 263.94 423.23C265.28 412.93 265.71 401.67 267.67 392.66C272.94 368.47 284.2 348.8 297.52 326.51C298.247 325.29 299.247 325.15 300.52 326.09" stroke="#F18B75" stroke-width="2"/>
<path d="M345.32 373.78C347.607 372.973 348.907 370.457 349.22 366.23C349.233 365.997 349.13 365.906 348.91 365.96C348.49 366.053 348.2 366.233 348.04 366.5" stroke="#FC998A" stroke-width="2"/>
<path d="M347.54 364.56C348.587 364.847 349.54 364.103 350.4 362.33" stroke="#FC998A" stroke-width="2"/>
<path d="M350.4 362.33C351.573 362.777 352.31 363.307 352.61 363.92C356.35 371.6 360.187 379.233 364.12 386.82C369.84 397.86 374.98 409.72 380.61 421.05" stroke="#F18B75" stroke-width="2"/>
<path d="M380.61 421.05C378.197 426.903 375.153 431.363 371.48 434.43C369.48 436.09 369.583 436.236 371.79 434.87C374.76 433.03 379.74 425.94 383.23 430.05" stroke="#F18B75" stroke-width="2"/>
<path d="M383.23 430.05C386.703 438.903 389.6 447.82 391.92 456.8" stroke="#F18B75" stroke-width="2"/>
<path d="M186.26 276.36C187.76 280.073 188.117 283.627 187.33 287.02" stroke="#F18B75" stroke-width="2"/>
<path d="M64.8099 290.62C63.2433 283.313 63.9466 276.807 66.9199 271.1C67.1173 270.72 67.4187 270.405 67.7888 270.191C68.159 269.976 68.5826 269.872 69.0099 269.89L78.9699 270.32C79.6299 270.347 79.9599 270.03 79.9599 269.37V264.47" stroke="#7D847E" stroke-width="2"/>
<path d="M834.65 263.6C834.21 265.826 833.287 268.043 831.88 270.25C829.11 274.59 829.95 282.88 834.28 286.06C844.59 293.63 852.71 288.16 859.51 279.76C870.837 265.78 879.883 250.496 886.65 233.91" stroke="#FBE6D8" stroke-width="2"/>
<path d="M886.65 233.91C903.08 200.72 900.29 157.78 870.68 132.59C849.66 114.7 825.55 115.04 800.89 125.36C793.35 128.51 787.05 134.41 781.24 140.01C781.161 140.087 781.065 140.147 780.961 140.185C780.857 140.223 780.745 140.239 780.635 140.23C780.524 140.222 780.416 140.189 780.319 140.136C780.221 140.082 780.137 140.009 780.07 139.92C769.19 125.29 754.87 112.71 737.43 108.32C696.32 97.9698 660.59 126.97 652.92 166.74C648.04 192.02 652.4 215.933 666 238.48C672.767 249.7 678.617 258.273 683.55 264.2C691.5 273.77 702.87 284.37 713.72 293.37C727.273 304.623 741.073 315.58 755.12 326.24C755.387 326.44 755.667 326.456 755.96 326.29C766.727 320.296 777.33 314.033 787.77 307.5C791.357 305.253 797.677 300.663 806.73 293.73C818.68 284.57 825.95 274.73 834.65 263.6" stroke="#7E9BA5" stroke-width="2"/>
<path d="M886.65 233.91C884.91 228.19 885.96 222.32 878.25 220.24C869.49 217.88 862.28 224.75 857.46 230.97C849.2 241.63 841.597 252.507 834.65 263.6" stroke="#7D847E" stroke-width="2"/>
<path d="M623.37 437.73C623.123 437.983 622.923 438.083 622.77 438.03" stroke="#FBE6D8" stroke-width="2"/>
<path d="M622.77 438.03C615.32 432.19 613.04 426.64 609.38 419.29C609.308 419.137 609.188 419.011 609.038 418.932C608.888 418.853 608.717 418.825 608.55 418.853C608.382 418.88 608.229 418.96 608.111 419.083C607.994 419.205 607.92 419.362 607.9 419.53C605.16 440.15 600.277 459.906 593.25 478.8C592.59 480.54 594.59 482.08 595.38 483.1C621.16 516.026 654.557 535.293 695.57 540.9C729.94 545.6 769.42 536.68 795.42 512.66C822.95 487.23 837.74 451.57 840.5 414.25C841.313 403.33 841.873 391.663 842.18 379.25C842.38 371.096 842.82 365.51 843.5 362.49C845.33 354.42 849.59 343.36 857.59 339.38C862.34 337.02 868.34 338.07 873.92 338.61C885.22 339.71 893.51 335.19 900.88 326.41C912.71 312.32 920.07 290.33 913 272.39C912.24 270.463 911.303 269.09 910.19 268.27C907.84 266.53 900.99 265.39 901.02 270.07C901.1 281.74 898.69 297.8 890.84 305.63C890.721 305.749 890.571 305.831 890.407 305.867C890.243 305.904 890.072 305.892 889.914 305.834C889.756 305.777 889.618 305.675 889.517 305.541C889.415 305.407 889.354 305.247 889.34 305.08C888.72 297.86 893.82 286.36 888.46 279.98C885.35 276.27 880.24 277.8 877.73 281.58C875.223 285.353 873.13 289.356 871.45 293.59C870.14 296.9 867.67 300 864.54 300.84C855.593 303.253 848.027 307.636 841.84 313.99C827.77 328.43 827.22 350.44 816.19 366.69C809.577 376.43 801.673 384.876 792.48 392.03C780.25 401.53 764.53 407.79 754.16 419.3C747.88 426.266 743.253 434.336 740.28 443.51C740.187 443.803 740.117 443.796 740.07 443.49C739.897 442.316 739.863 441.48 739.97 440.98C743.74 424.08 750.76 410.93 765.85 401.62C767.83 400.4 772.44 397.923 779.68 394.19C789.553 389.09 798.35 382.12 806.07 373.28C812.39 366.04 815.87 356.68 818.36 347.53C820.833 338.403 823.307 330.16 825.78 322.8C826.873 319.553 826.263 319.19 823.95 321.71C817.423 328.836 810.76 336.006 803.96 343.22C789.92 358.12 776.49 366.1 756.59 379.49C749.223 384.443 743.903 388.436 740.63 391.47C724.37 406.54 716.99 424 710.67 444.93C704.08 466.77 699.46 479.79 697.27 495.69C697.267 495.706 697.26 495.721 697.249 495.733C697.239 495.745 697.225 495.754 697.21 495.759C697.194 495.765 697.178 495.765 697.162 495.762C697.146 495.759 697.132 495.751 697.12 495.74C697.053 495.68 696.99 495.62 696.93 495.56C696.843 495.466 696.807 495.36 696.82 495.24C698 481.46 699.66 467.746 701.8 454.1C703.93 440.51 708.22 426.66 711.8 413.03C712.973 408.55 713.123 403.753 712.25 398.64C711.603 394.866 710 390.44 707.44 385.36C690.96 352.68 667.27 329.06 634.79 312.32C621.68 305.56 608.14 301.88 593.24 298.04C587.973 296.68 583.157 296.053 578.79 296.16C578.27 296.173 578.153 296.4 578.44 296.84L585.31 307.28C585.422 307.448 585.57 307.587 585.744 307.688C585.917 307.789 586.111 307.847 586.31 307.86C591.15 308.16 607.69 309.49 610.77 313.33C611.243 313.923 611.297 314.54 610.93 315.18C610.828 315.354 610.665 315.486 610.473 315.55C610.28 315.614 610.069 315.607 609.88 315.53C602.587 312.423 594.96 310.846 587 310.8C586.64 310.8 586.503 310.973 586.59 311.32C588.14 317.61 591.45 323.29 594.2 329.12C600 341.42 603.17 355.07 605.5 368.36C607.86 381.78 607.81 396.72 608.09 410.82C608.11 411.686 608.44 411.83 609.08 411.25C615.04 405.89 619.52 400.46 626.71 396.27C631.96 393.23 638.83 391.51 644.98 389.6C645.32 389.493 645.66 389.49 646 389.59C665.46 395.13 678.09 412.05 686.36 429.31C688.6 433.98 687.6 439.49 686.19 444.2C686.17 444.271 686.129 444.333 686.07 444.377C686.012 444.421 685.941 444.444 685.867 444.444C685.793 444.444 685.72 444.421 685.66 444.377C685.599 444.333 685.554 444.271 685.53 444.2C680.31 427.36 671.44 407 653.58 399.83C643.92 395.96 627.09 400.95 619.64 407.88C615.93 411.34 611.48 416.45 612.75 422.03C614.21 428.41 617.75 433.643 623.37 437.73" stroke="#F18B75" stroke-width="2"/>
<path d="M622.77 438.03C623.857 439.083 625.07 439.98 626.41 440.72C626.477 440.753 626.533 440.766 626.58 440.76C626.66 440.733 626.72 440.666 626.76 440.56C626.793 440.486 626.78 440.426 626.72 440.38L623.37 437.73" stroke="#FC998A" stroke-width="2"/>
<path d="M768.12 247.97C768.17 247.629 768.352 247.321 768.627 247.113C768.902 246.905 769.248 246.814 769.59 246.86L781.49 248.48C781.69 248.506 781.817 248.42 781.87 248.22L785.66 234.11C785.76 233.743 785.627 233.503 785.26 233.39L782.83 232.64C782.51 232.546 782.317 232.663 782.25 232.99L780.11 243.42C780.066 243.631 779.944 243.818 779.767 243.943C779.591 244.067 779.374 244.12 779.16 244.09C774.767 243.483 770.37 243.366 765.97 243.74C764.903 243.826 764.28 244.4 764.1 245.46C762.3 256.29 759.44 267.15 757.23 278.12C756.6 281.26 754.83 285.73 754.94 290.18C754.953 290.813 754.59 291.796 753.85 293.13C753.643 293.503 753.51 293.476 753.45 293.05C753.21 291.436 752.82 289.866 752.28 288.34C748.83 278.59 746.2 268.47 743.85 258.53C743.774 258.206 743.628 257.903 743.423 257.641C743.218 257.379 742.959 257.165 742.664 257.013C742.368 256.861 742.043 256.775 741.711 256.76C741.379 256.746 741.048 256.804 740.74 256.93L719.13 265.75C718.994 265.805 718.845 265.819 718.702 265.791C718.558 265.763 718.425 265.695 718.32 265.593C718.214 265.492 718.14 265.362 718.106 265.219C718.072 265.077 718.081 264.928 718.13 264.79C724.01 248.61 728.02 233.06 733.3 210.76C734.353 206.306 735.713 201.93 737.38 197.63C737.513 197.283 737.403 197.046 737.05 196.92L733.82 195.75C733.447 195.616 733.207 195.743 733.1 196.13L711.78 272.29C711.687 272.623 711.803 272.736 712.13 272.63C720.957 269.83 729.567 266.483 737.96 262.59C738.307 262.43 738.523 262.536 738.61 262.91C742.42 279.82 747.2 297.02 755.46 312.34C755.501 312.422 755.567 312.488 755.648 312.53C755.73 312.572 755.822 312.586 755.913 312.572C756.003 312.557 756.086 312.514 756.151 312.449C756.215 312.384 756.257 312.3 756.27 312.21C756.83 308.94 756.93 305.46 757.55 302.38C759.66 291.9 761.15 281.65 763.68 270.99C765.507 263.276 766.987 255.603 768.12 247.97Z" stroke="#7D847E" stroke-width="2"/>
<path d="M521.08 142.448C521.199 142.547 521.339 142.619 521.492 142.659C521.645 142.699 521.808 142.707 521.972 142.682C522.136 142.657 522.298 142.599 522.447 142.512C522.597 142.426 522.732 142.312 522.845 142.177C522.958 142.042 523.046 141.888 523.105 141.726C523.164 141.563 523.192 141.394 523.188 141.228C523.184 141.062 523.147 140.903 523.08 140.76C523.014 140.616 522.918 140.491 522.799 140.392C522.681 140.292 522.541 140.221 522.388 140.18C522.235 140.14 522.071 140.132 521.908 140.158C521.744 140.183 521.582 140.24 521.432 140.327C521.283 140.414 521.148 140.528 521.035 140.663C520.922 140.798 520.833 140.951 520.775 141.114C520.716 141.277 520.688 141.446 520.692 141.611C520.696 141.777 520.733 141.936 520.799 142.08C520.866 142.223 520.962 142.348 521.08 142.448Z" stroke="#F18B75" stroke-width="2"/>
<path d="M503.15 182.22C499.8 190.22 508.71 202.2 517.09 203.13C524.78 203.98 529.44 196.65 529.56 189.67C529.567 189.317 529.393 189.173 529.04 189.24C516.92 191.72 513.2 191.06 504.24 182.01C504.163 181.932 504.067 181.875 503.963 181.843C503.858 181.811 503.747 181.805 503.639 181.825C503.532 181.846 503.431 181.893 503.345 181.962C503.26 182.03 503.193 182.119 503.15 182.22Z" stroke="#F18B75" stroke-width="2"/>
<path d="M138.94 217.31C148.24 217.66 154.87 223.02 158.07 231.81C158.102 231.883 158.159 231.942 158.231 231.977C158.303 232.012 158.384 232.021 158.462 232.002C158.539 231.983 158.608 231.937 158.655 231.873C158.702 231.808 158.725 231.729 158.72 231.65C158.23 227.61 159.02 221.43 157.19 218.11C153.9 212.13 147.1 211.12 140.43 211.45C127.94 212.06 123.01 219.09 119.62 230.5C118.147 235.447 117.52 240.577 117.74 245.89C117.773 246.537 117.963 246.587 118.31 246.04C119.03 244.92 119.463 243.66 119.61 242.26C120.81 230.44 123.62 216.74 138.94 217.31Z" stroke="#049199" stroke-width="2"/>
<path d="M123.79 359.95C126.223 361.443 129.203 362.047 132.73 361.76C141.89 361.02 156.28 361.49 156.79 348.57C156.785 348.504 156.756 348.442 156.71 348.395C156.663 348.347 156.602 348.318 156.536 348.312C156.47 348.306 156.404 348.324 156.35 348.362C156.296 348.4 156.257 348.456 156.24 348.52L155.63 352.71C155.604 352.873 155.535 353.028 155.43 353.16C149.39 360.92 141.99 358.85 133.55 360.02C129.53 360.58 126.403 360.327 124.17 359.26C119.69 357.127 119.563 357.357 123.79 359.95Z" stroke="#049199" stroke-width="2"/>
<path d="M323 219.27C331.64 213.01 345.41 212.88 349.05 225.08C349.074 225.142 349.12 225.194 349.178 225.227C349.237 225.26 349.305 225.271 349.371 225.26C349.437 225.248 349.497 225.213 349.541 225.162C349.584 225.111 349.609 225.047 349.61 224.98C349.19 219.426 346.403 215.45 341.25 213.05C326.67 206.24 316.06 214.51 312.45 228.47C312.387 228.7 312.405 228.944 312.499 229.163C312.594 229.382 312.76 229.562 312.971 229.674C313.182 229.786 313.424 229.822 313.658 229.778C313.893 229.734 314.105 229.611 314.26 229.43C317.2 226.1 319.63 221.71 323 219.27Z" stroke="#049199" stroke-width="2"/>
<path d="M198.68 309.57C200.06 310.74 203.68 313.17 205.73 313C206.183 312.96 206.213 312.83 205.82 312.61C199.75 309.21 195.92 302.49 198.28 295.57C199.76 291.24 200.81 287.27 203.25 283.03C206.377 277.59 207.28 271.643 205.96 265.19C205.88 264.803 205.67 264.507 205.33 264.3C202.47 262.58 199.437 262.25 196.23 263.31C196.085 263.359 195.953 263.44 195.842 263.546C195.732 263.653 195.646 263.782 195.59 263.925C195.535 264.068 195.512 264.221 195.522 264.374C195.532 264.527 195.576 264.676 195.65 264.81C198.923 270.677 200.023 276.927 198.95 283.56C198.757 284.787 198.13 286.413 197.07 288.44C193.29 295.69 191.68 303.66 198.68 309.57Z" stroke="#F18B75" stroke-width="2"/>
<path d="M269.42 456.13C268.593 458.39 267.913 458.347 267.38 456C264.527 443.347 258.773 432.377 250.12 423.09C246.71 419.43 241.47 417.12 237.42 414.31C218.46 401.13 221.5 376.75 225.52 357.51C225.88 355.777 225.65 354.257 224.83 352.95C224.782 352.872 224.713 352.81 224.631 352.771C224.549 352.732 224.457 352.717 224.366 352.729C224.275 352.74 224.188 352.777 224.116 352.836C224.044 352.895 223.99 352.972 223.96 353.06C219.63 366.21 215.06 380.31 217.85 394.93C220.38 408.21 228.87 413.96 239.52 420.47C256.83 431.06 261.25 456.89 266.47 475.38C269.19 485.02 270.28 494.13 271.32 503.82C271.353 504.14 271.46 504.167 271.64 503.9C271.787 503.68 271.843 503.377 271.81 502.99C270.18 485.17 270.12 461.33 278.02 445.55C286.66 428.29 299.36 407.34 319.09 401.21C321.17 400.56 323.54 400.6 325.79 400.45C326.59 400.397 326.613 400.233 325.86 399.96C319.68 397.71 309.16 402.89 303.63 405.91C284.42 416.38 276.78 436.02 269.42 456.13Z" stroke="#F18B75" stroke-width="2"/>
<path d="M401.62 367.39C411.4 376.29 422.17 382 434.71 387.77C436.657 388.67 438.49 389.177 440.21 389.29C440.372 389.302 440.535 389.282 440.689 389.231C440.844 389.179 440.987 389.097 441.11 388.99C442.83 387.49 442.21 386.01 440.34 385.03C418.447 373.523 400.087 358.087 385.26 338.72C384.733 338.033 384.173 337.507 383.58 337.14C383.287 336.953 382.977 336.91 382.65 337.01C379.2 338.05 379.26 340.88 381.02 343.5C386.92 352.293 393.787 360.257 401.62 367.39Z" stroke="#FBE6D8" stroke-width="2"/>
<path d="M524.12 399.24C530.65 405.35 536.35 414.98 541.64 422.31C545.96 428.28 549.44 431.15 556.49 431.8C556.587 431.807 556.684 431.782 556.765 431.729C556.847 431.676 556.91 431.599 556.943 431.507C556.977 431.416 556.98 431.316 556.953 431.223C556.925 431.13 556.868 431.048 556.79 430.99C549.55 425.74 542.92 419.6 538.57 411.48C532.01 399.27 525.83 387.42 518.24 375.32C513.11 367.14 508.48 358.15 502.42 350.63C502.355 350.557 502.266 350.51 502.169 350.497C502.072 350.484 501.974 350.506 501.892 350.559C501.81 350.612 501.75 350.693 501.722 350.787C501.694 350.88 501.7 350.981 501.74 351.07C506.733 360.903 511.593 370.903 516.32 381.07C528.2 406.64 494.64 435.62 471.26 434.03C471.053 434.01 470.863 434.053 470.69 434.16C470.323 434.373 470.347 434.517 470.76 434.59C488.46 437.65 505.58 430.81 515.86 416.89C519.61 411.81 521.58 405.73 523 399.57C523.027 399.455 523.083 399.35 523.164 399.265C523.245 399.18 523.347 399.117 523.46 399.084C523.574 399.05 523.694 399.047 523.81 399.075C523.926 399.102 524.033 399.159 524.12 399.24Z" stroke="#FBAE92" stroke-width="2"/>
<path d="M453.879 409.501C453.937 408.854 453.794 408.195 453.458 407.562C453.122 406.929 452.599 406.334 451.921 405.812C451.242 405.29 450.42 404.851 449.502 404.519C448.584 404.188 447.588 403.97 446.57 403.879C444.515 403.696 442.497 404.039 440.962 404.834C439.426 405.629 438.497 406.811 438.381 408.118C438.323 408.766 438.466 409.425 438.802 410.058C439.138 410.691 439.661 411.285 440.339 411.807C441.018 412.329 441.84 412.768 442.758 413.1C443.676 413.432 444.672 413.649 445.69 413.74C447.745 413.924 449.763 413.58 451.298 412.785C452.834 411.99 453.762 410.809 453.879 409.501Z" stroke="#FC998A" stroke-width="2"/>
<path d="M541.71 451.35C537.21 451.903 532.883 452.473 528.73 453.06C508.78 455.87 486.4 453.85 466.52 450.9C462.46 450.3 458.39 450.53 454.31 450.52C453.797 450.513 453.393 451.046 453.1 452.12" stroke="#FBE6D8" stroke-width="2"/>
<path d="M453.1 452.12C452.4 450.487 451.203 450.253 449.51 451.42C449.371 451.516 449.255 451.641 449.17 451.786C449.085 451.932 449.033 452.094 449.018 452.262C449.002 452.43 449.024 452.6 449.082 452.758C449.139 452.917 449.231 453.061 449.35 453.18C462.38 466.21 480.15 471.6 498.56 472.03C518.02 472.48 542.17 469.8 552.99 450.73C553.126 450.49 553.193 450.218 553.183 449.942C553.173 449.667 553.086 449.4 552.932 449.171C552.778 448.942 552.564 448.761 552.312 448.648C552.061 448.535 551.783 448.494 551.51 448.53C548.03 448.977 544.763 449.917 541.71 451.35" stroke="#FBAE92" stroke-width="2"/>
<path d="M453.1 452.12C461.667 457.293 471.213 460.513 481.74 461.78C499.05 463.86 527.63 463.48 541.71 451.35" stroke="#FDC6B9" stroke-width="2"/>
<path d="M454.54 483.13C459.69 486.08 463.91 489.59 468.32 491.94C481.24 498.83 499.84 502.44 513.97 496.61C521.69 493.42 528.12 486.25 533.52 479.63C533.567 479.575 533.598 479.507 533.607 479.436C533.616 479.364 533.605 479.291 533.573 479.224C533.542 479.158 533.492 479.102 533.429 479.062C533.367 479.022 533.294 479.001 533.22 479H532.48C532.153 479 531.863 479.103 531.61 479.31C527.4 482.72 523.04 486.71 518.32 488.93C497.77 498.59 473.62 492.57 455.55 480.82C455.377 480.706 455.177 480.641 454.971 480.631C454.765 480.621 454.559 480.667 454.375 480.764C454.192 480.86 454.037 481.005 453.927 481.182C453.817 481.359 453.756 481.562 453.75 481.77C453.73 482.363 453.993 482.816 454.54 483.13Z" stroke="#FBAE92" stroke-width="2"/>
<path d="M455.07 512.34C454.11 512.173 453.313 512.3 452.68 512.72C452.56 512.802 452.464 512.914 452.399 513.043C452.334 513.172 452.304 513.316 452.31 513.46C453 527.58 468.68 530.27 479.26 533.52C479.587 533.62 479.69 533.833 479.57 534.16C475.85 544.41 467.79 553.84 456.45 554.45C449.96 554.79 444.34 551.03 439.78 546.69C439.46 546.383 439.21 546.43 439.03 546.83C435.73 554.17 449.1 561.36 454.42 562.25C461.67 563.45 472.97 556.57 478.25 552.24C483.43 547.986 486.537 542.426 487.57 535.56C487.623 535.233 487.813 535.08 488.14 535.1C500.77 535.91 513.69 528.47 517.25 515.78C518.07 512.853 517.267 512.303 514.84 514.13L501.93 523.86" stroke="#FBAE92" stroke-width="2"/>
<path d="M501.93 523.86C501.143 520.527 499.35 518.163 496.55 516.77C496.254 516.629 495.915 516.604 495.6 516.7C490.09 518.43 484.16 521.04 478.34 521.03C469.65 521.02 462.64 520.67 457.82 512.3C457.46 511.667 457.073 511.327 456.66 511.28C456.08 511.22 455.55 511.573 455.07 512.34" stroke="#FBE6D8" stroke-width="2"/>
<path d="M501.93 523.86C497.41 527.553 491.927 528.93 485.48 527.99C480.08 527.2 449.41 522.14 455.07 512.34" stroke="#FDC6B9" stroke-width="2"/>
<path d="M528.92 520.68C537.88 521.7 547.38 522.32 555.32 527.1C555.442 527.176 555.587 527.205 555.729 527.18C555.871 527.156 555.998 527.079 556.087 526.966C556.175 526.852 556.218 526.71 556.208 526.567C556.197 526.423 556.134 526.289 556.03 526.19C548.357 518.35 539.203 516.07 528.57 519.35C528.441 519.392 528.328 519.473 528.247 519.581C528.166 519.689 528.12 519.82 528.116 519.956C528.111 520.091 528.149 520.225 528.223 520.338C528.297 520.451 528.404 520.539 528.53 520.59C528.643 520.63 528.773 520.66 528.92 520.68Z" stroke="#FBAE92" stroke-width="2"/>
<path d="M457.79 589.73C471.06 590.94 485.94 583.12 492.98 572.11C493.14 571.856 493.357 571.786 493.63 571.9C504.583 576.526 515.513 576.77 526.42 572.63C535.67 569.12 538.91 562.77 544.55 553.98C545.64 552.28 547.6 550.37 548.28 547.82C548.4 547.366 548.25 547.243 547.83 547.45C539.68 551.38 535.85 555.71 530.25 561.23C517.92 573.38 510.11 570.67 493.78 568.95C493.38 568.903 493.22 568.686 493.3 568.3C494.61 561.94 493.13 558.73 486.39 561.15C485.983 561.296 485.853 561.576 486 561.99C486.213 562.563 486.567 563.04 487.06 563.42C487.328 563.635 487.529 563.923 487.64 564.25C490.33 572.35 475.14 582.58 469.54 585.47C466.03 587.29 461.93 587.86 457.72 588.87C457.622 588.898 457.537 588.959 457.479 589.042C457.421 589.126 457.394 589.227 457.403 589.328C457.411 589.43 457.454 589.525 457.525 589.598C457.595 589.671 457.689 589.718 457.79 589.73Z" stroke="#FBAE92" stroke-width="2"/>
<path d="M278.44 310.96C281.6 318.81 289.26 322.79 297.18 324.64C297.405 324.692 297.638 324.697 297.865 324.654C298.091 324.611 298.306 324.521 298.497 324.39C298.687 324.26 298.847 324.091 298.968 323.894C299.09 323.698 299.168 323.478 299.2 323.25C299.84 318.64 296.5 317.86 293.09 316.42C289.697 314.987 286.2 313.847 282.6 313C282.591 313 282.581 312.998 282.573 312.995C282.564 312.991 282.557 312.986 282.55 312.98L278.88 310.6C278.827 310.567 278.764 310.551 278.702 310.555C278.639 310.559 278.579 310.582 278.531 310.622C278.482 310.662 278.447 310.716 278.431 310.776C278.415 310.837 278.418 310.901 278.44 310.96Z" stroke="#FBE6D8" stroke-width="2"/>
<path d="M540.49 134.17C536.15 133.75 526 131.85 522.67 132.88C515.71 135.046 509.317 136.006 503.49 135.76C496.46 135.47 485.57 133.98 481.35 136.36C477.3 138.65 477.82 142.8 478.81 147.37C480.25 154.076 480.473 160.84 479.48 167.66C478.84 172.04 474.58 174.13 470.74 172.4C470.59 172.334 470.456 172.237 470.347 172.114C470.238 171.992 470.157 171.847 470.11 171.69C468.22 165.58 465.18 158.37 457.47 159.99C452.597 161.023 450.05 164.456 449.83 170.29C449.5 179 451.78 188.14 462.72 187.2C462.789 187.194 462.858 187.203 462.923 187.226C462.988 187.25 463.048 187.287 463.097 187.335C463.147 187.384 463.185 187.442 463.21 187.507C463.234 187.572 463.245 187.641 463.24 187.71L463.09 190.27C461.73 197.423 461.12 204.583 461.26 211.75C461.58 211.81 461.63 212.213 461.41 212.96C452.51 211.17 444.11 209.49 436.44 204.28C418.76 192.26 410.143 176.066 410.59 155.7C410.757 148.32 411.787 141.756 413.68 136.01C421.32 112.86 442.69 102.29 466.29 109.01C466.431 109.051 466.582 109.039 466.716 108.977C466.85 108.914 466.958 108.805 467.02 108.67C470.56 100.75 474.19 94.1998 480.69 89.0198C503.18 71.0898 550.13 80.1098 554.64 112.73C556.107 123.35 551.39 130.496 540.49 134.17Z" fill="#572E4A"/>
<path d="M886.65 233.91C884.91 228.19 885.96 222.32 878.25 220.24C869.49 217.88 862.28 224.75 857.46 230.97C849.2 241.63 841.597 252.507 834.65 263.6C825.95 274.73 818.68 284.57 806.73 293.73C797.677 300.663 791.357 305.253 787.77 307.5C777.33 314.033 766.727 320.297 755.96 326.29C755.667 326.457 755.387 326.44 755.12 326.24C741.073 315.58 727.273 304.623 713.72 293.37C702.87 284.37 691.5 273.77 683.55 264.2C678.617 258.273 672.767 249.7 666 238.48C652.4 215.933 648.04 192.02 652.92 166.74C660.59 126.97 696.32 97.9699 737.43 108.32C754.87 112.71 769.19 125.29 780.07 139.92C780.137 140.009 780.221 140.083 780.319 140.136C780.416 140.19 780.524 140.222 780.635 140.23C780.745 140.239 780.857 140.223 780.961 140.185C781.066 140.147 781.161 140.088 781.24 140.01C787.05 134.41 793.35 128.51 800.89 125.36C825.55 115.04 849.66 114.7 870.68 132.59C900.29 157.78 903.08 200.72 886.65 233.91ZM768.12 247.97C768.17 247.629 768.352 247.321 768.627 247.113C768.902 246.905 769.248 246.814 769.59 246.86L781.49 248.48C781.69 248.507 781.817 248.42 781.87 248.22L785.66 234.11C785.76 233.743 785.627 233.503 785.26 233.39L782.83 232.64C782.51 232.547 782.317 232.663 782.25 232.99L780.11 243.42C780.066 243.631 779.944 243.818 779.768 243.943C779.591 244.067 779.374 244.12 779.16 244.09C774.767 243.483 770.37 243.367 765.97 243.74C764.903 243.827 764.28 244.4 764.1 245.46C762.3 256.29 759.44 267.15 757.23 278.12C756.6 281.26 754.83 285.73 754.94 290.18C754.953 290.813 754.59 291.797 753.85 293.13C753.643 293.503 753.51 293.477 753.45 293.05C753.21 291.437 752.82 289.867 752.28 288.34C748.83 278.59 746.2 268.47 743.85 258.53C743.774 258.206 743.628 257.903 743.423 257.641C743.218 257.38 742.959 257.165 742.664 257.013C742.368 256.861 742.043 256.775 741.711 256.761C741.379 256.746 741.048 256.804 740.74 256.93L719.13 265.75C718.994 265.805 718.845 265.819 718.702 265.791C718.558 265.763 718.425 265.695 718.32 265.593C718.214 265.492 718.14 265.362 718.106 265.22C718.073 265.077 718.081 264.928 718.13 264.79C724.01 248.61 728.02 233.06 733.3 210.76C734.353 206.307 735.713 201.93 737.38 197.63C737.513 197.283 737.403 197.047 737.05 196.92L733.82 195.75C733.447 195.617 733.207 195.743 733.1 196.13L711.78 272.29C711.687 272.623 711.803 272.737 712.13 272.63C720.957 269.83 729.567 266.483 737.96 262.59C738.307 262.43 738.523 262.537 738.61 262.91C742.42 279.82 747.2 297.02 755.46 312.34C755.501 312.422 755.567 312.488 755.648 312.53C755.73 312.572 755.822 312.587 755.913 312.572C756.003 312.558 756.086 312.515 756.151 312.449C756.215 312.384 756.257 312.3 756.27 312.21C756.83 308.94 756.93 305.46 757.55 302.38C759.66 291.9 761.15 281.65 763.68 270.99C765.507 263.277 766.987 255.603 768.12 247.97Z" fill="#FF6362"/>
<path d="M540.49 134.17C540.477 136.217 540.537 138.637 540.67 141.43C541.49 158.337 540.6 174.027 538 188.5C534.87 205.9 524.45 220.8 505.93 222.42C492.73 223.574 481.373 219.304 471.86 209.61C471.815 209.566 471.759 209.536 471.697 209.523C471.636 209.51 471.572 209.515 471.513 209.537C471.454 209.559 471.403 209.597 471.365 209.648C471.327 209.698 471.305 209.758 471.3 209.82C471.273 210.3 471.393 210.72 471.66 211.08C473.98 214.147 476.573 216.974 479.44 219.56C484.01 223.67 483.26 230.61 482.91 236.1C481.75 253.94 476.06 261.41 460.66 270.12C460.42 270.254 460.283 270.434 460.25 270.66C460.19 271.014 460.323 271.114 460.65 270.96C472.38 265.28 482.49 259.49 485.3 245.31C486.613 238.684 486.857 232.08 486.03 225.5C486.021 225.413 486.034 225.326 486.068 225.245C486.103 225.165 486.157 225.095 486.226 225.042C486.296 224.989 486.377 224.954 486.464 224.942C486.55 224.929 486.638 224.939 486.72 224.97C492.68 227.33 498.86 228.72 505.26 229.14C505.357 229.146 505.451 229.172 505.537 229.217C505.624 229.261 505.7 229.324 505.761 229.4C505.822 229.476 505.867 229.564 505.892 229.659C505.918 229.754 505.924 229.853 505.91 229.95C504.54 238.82 503.32 252.39 507.24 260.74C512.74 272.46 528.39 281.1 540.54 284.86C539.807 285.22 539.737 285.424 540.33 285.47C542.19 294.45 542.81 301.39 539.64 308.69C526.31 339.35 483.83 333.77 462.19 318.14C449.09 308.68 439.94 298.59 439.11 282.16C448.99 275.19 455.69 268.32 458.82 256.77C462.97 241.41 462.03 228.01 461.41 212.96C461.63 212.214 461.58 211.81 461.26 211.75L462.3 211.46C462.667 211.354 462.84 211.107 462.82 210.72C462.48 204.027 462.877 197.377 464.01 190.77C464.083 190.35 463.91 190.167 463.49 190.22L463.09 190.27L463.24 187.71C463.244 187.641 463.234 187.572 463.209 187.507C463.185 187.443 463.146 187.384 463.097 187.336C463.048 187.287 462.988 187.25 462.923 187.227C462.858 187.203 462.789 187.194 462.72 187.2C451.78 188.14 449.5 179 449.83 170.29C450.05 164.457 452.597 161.024 457.47 159.99C465.18 158.37 468.22 165.58 470.11 171.69C470.157 171.847 470.238 171.992 470.347 172.115C470.455 172.237 470.59 172.335 470.74 172.4C474.58 174.13 478.84 172.04 479.48 167.66C480.473 160.84 480.25 154.077 478.81 147.37C477.82 142.8 477.3 138.65 481.35 136.36C485.57 133.98 496.46 135.47 503.49 135.76C509.317 136.007 515.71 135.047 522.67 132.88C526 131.85 536.15 133.75 540.49 134.17ZM521.08 142.448C521.199 142.548 521.339 142.619 521.492 142.66C521.645 142.7 521.808 142.708 521.972 142.682C522.136 142.657 522.298 142.6 522.447 142.513C522.597 142.426 522.732 142.312 522.845 142.177C522.958 142.042 523.046 141.889 523.105 141.726C523.164 141.563 523.192 141.394 523.188 141.229C523.184 141.063 523.147 140.904 523.08 140.76C523.014 140.617 522.918 140.492 522.799 140.392C522.68 140.293 522.541 140.221 522.388 140.181C522.234 140.141 522.071 140.133 521.908 140.158C521.744 140.183 521.582 140.241 521.432 140.328C521.283 140.414 521.147 140.528 521.035 140.663C520.922 140.798 520.833 140.952 520.775 141.114C520.716 141.277 520.688 141.446 520.692 141.612C520.696 141.778 520.733 141.937 520.799 142.08C520.866 142.224 520.961 142.349 521.08 142.448ZM503.15 182.22C499.8 190.22 508.71 202.2 517.09 203.13C524.78 203.98 529.44 196.65 529.56 189.67C529.567 189.317 529.393 189.174 529.04 189.24C516.92 191.72 513.2 191.06 504.24 182.01C504.162 181.933 504.067 181.875 503.962 181.843C503.858 181.811 503.747 181.805 503.639 181.826C503.532 181.847 503.431 181.893 503.345 181.962C503.26 182.031 503.193 182.12 503.15 182.22Z" fill="#F8A379"/>
<path d="M521.035 140.663C520.56 141.231 520.581 142.03 521.08 142.448C521.58 142.866 522.371 142.745 522.845 142.177C523.32 141.609 523.3 140.81 522.8 140.392C522.3 139.974 521.509 140.095 521.035 140.663Z" fill="#00394A"/>
<path d="M517.09 203.13C508.71 202.2 499.8 190.22 503.15 182.22C503.193 182.119 503.26 182.031 503.345 181.962C503.431 181.893 503.532 181.846 503.639 181.826C503.747 181.805 503.858 181.811 503.963 181.843C504.067 181.875 504.163 181.932 504.24 182.01C513.2 191.06 516.92 191.72 529.04 189.24C529.393 189.173 529.567 189.317 529.56 189.67C529.44 196.65 524.78 203.98 517.09 203.13Z" fill="#FCFDFF"/>
<path d="M463.09 190.27L463.49 190.22C463.91 190.167 464.083 190.35 464.01 190.77C462.877 197.377 462.48 204.027 462.82 210.72C462.84 211.107 462.667 211.353 462.3 211.46L461.26 211.75C461.12 204.583 461.73 197.423 463.09 190.27Z" fill="#F9CEB1"/>
<path d="M768.12 247.97C766.987 255.603 765.507 263.277 763.68 270.99C761.15 281.65 759.66 291.9 757.55 302.38C756.93 305.46 756.83 308.94 756.27 312.21C756.257 312.301 756.215 312.384 756.151 312.45C756.086 312.515 756.003 312.558 755.913 312.572C755.822 312.587 755.73 312.572 755.648 312.53C755.567 312.488 755.501 312.422 755.46 312.34C747.2 297.02 742.42 279.82 738.61 262.91C738.523 262.537 738.307 262.43 737.96 262.59C729.567 266.483 720.957 269.83 712.13 272.63C711.803 272.737 711.687 272.623 711.78 272.29L733.1 196.13C733.207 195.743 733.447 195.617 733.82 195.75L737.05 196.92C737.403 197.047 737.513 197.283 737.38 197.63C735.713 201.93 734.353 206.307 733.3 210.76C728.02 233.06 724.01 248.61 718.13 264.79C718.081 264.928 718.073 265.077 718.106 265.22C718.14 265.362 718.214 265.492 718.32 265.593C718.425 265.695 718.558 265.764 718.702 265.791C718.846 265.819 718.994 265.805 719.13 265.75L740.74 256.93C741.048 256.804 741.379 256.746 741.711 256.761C742.043 256.775 742.368 256.861 742.664 257.013C742.959 257.165 743.219 257.38 743.423 257.642C743.628 257.903 743.774 258.206 743.85 258.53C746.2 268.47 748.83 278.59 752.28 288.34C752.82 289.867 753.21 291.437 753.45 293.05C753.51 293.477 753.643 293.503 753.85 293.13C754.59 291.797 754.953 290.813 754.94 290.18C754.83 285.73 756.6 281.26 757.23 278.12C759.44 267.15 762.3 256.29 764.1 245.46C764.28 244.4 764.903 243.827 765.97 243.74C770.37 243.367 774.767 243.483 779.16 244.09C779.374 244.12 779.591 244.067 779.768 243.943C779.944 243.818 780.066 243.631 780.11 243.42L782.25 232.99C782.317 232.663 782.51 232.547 782.83 232.64L785.26 233.39C785.627 233.503 785.76 233.743 785.66 234.11L781.87 248.22C781.817 248.42 781.69 248.507 781.49 248.48L769.59 246.86C769.248 246.814 768.902 246.905 768.627 247.113C768.352 247.321 768.17 247.629 768.12 247.97Z" fill="#F9CEB1"/>
<path d="M186.26 276.36C187.76 280.073 188.117 283.627 187.33 287.02C182.43 292.44 176.5 294.783 169.54 294.05C168.08 293.897 166.89 293.53 165.97 292.95C165.875 292.889 165.765 292.855 165.652 292.851C165.539 292.847 165.427 292.873 165.328 292.927C165.229 292.982 165.146 293.061 165.088 293.159C165.031 293.256 165 293.367 165 293.48C164.92 305.34 164.813 317.263 164.68 329.25C164.573 339.077 163.92 347.323 162.72 353.99C160.86 364.32 157.27 371.4 146.34 372.82C135.51 374.23 117.86 373.61 114.03 360.73C111.663 352.75 110.293 344.21 109.92 335.11C109.912 334.948 109.842 334.795 109.725 334.684C109.608 334.572 109.452 334.51 109.29 334.51C90.75 334.4 93.69 330.09 92.06 314.29C92.05 314.163 91.9933 314.045 91.9008 313.958C91.8084 313.871 91.6868 313.822 91.56 313.82L82.03 313.57C80.0166 313.517 79.01 312.483 79.01 310.47L79 299.75C79 299.417 78.8333 299.257 78.5 299.27C71.6933 299.497 67.13 296.613 64.81 290.62C63.2433 283.313 63.9466 276.807 66.92 271.1C67.1173 270.72 67.4187 270.405 67.7889 270.191C68.159 269.976 68.5826 269.872 69.01 269.89L78.97 270.32C79.63 270.347 79.96 270.03 79.96 269.37V264.47C80.3 251.75 83.18 250.21 95.31 252.73C95.7166 252.81 95.8966 252.643 95.85 252.23C95.2 246.74 94.16 234 102.93 234.6C105.683 234.787 108.367 235.333 110.98 236.24C111.06 236.268 111.146 236.277 111.23 236.266C111.315 236.256 111.396 236.226 111.467 236.18C111.538 236.134 111.598 236.072 111.642 235.999C111.686 235.926 111.712 235.845 111.72 235.76C112.8 224.42 116.07 206.44 128.81 203.03C135.917 201.13 143.56 201.207 151.74 203.26C164.26 206.4 164.95 217.36 165.08 228.07C165.28 244.21 165.317 260.357 165.19 276.51C165.19 276.857 165.36 277.027 165.7 277.02C172.22 276.96 179.91 275.16 186.26 276.36ZM138.94 217.31C148.24 217.66 154.87 223.02 158.07 231.81C158.102 231.883 158.159 231.942 158.231 231.977C158.303 232.012 158.384 232.021 158.462 232.002C158.539 231.983 158.608 231.937 158.655 231.873C158.702 231.808 158.725 231.73 158.72 231.65C158.23 227.61 159.02 221.43 157.19 218.11C153.9 212.13 147.1 211.12 140.43 211.45C127.94 212.06 123.01 219.09 119.62 230.5C118.147 235.447 117.52 240.577 117.74 245.89C117.773 246.537 117.963 246.587 118.31 246.04C119.03 244.92 119.463 243.66 119.61 242.26C120.81 230.44 123.62 216.74 138.94 217.31ZM123.79 359.95C126.223 361.443 129.203 362.047 132.73 361.76C141.89 361.02 156.28 361.49 156.79 348.57C156.785 348.504 156.757 348.442 156.71 348.395C156.664 348.347 156.602 348.318 156.536 348.312C156.47 348.306 156.404 348.324 156.35 348.362C156.296 348.4 156.257 348.456 156.24 348.52L155.63 352.71C155.604 352.873 155.535 353.028 155.43 353.16C149.39 360.92 141.99 358.85 133.55 360.02C129.53 360.58 126.403 360.327 124.17 359.26C119.69 357.127 119.563 357.357 123.79 359.95Z" fill="#00242F"/>
<path d="M349.05 225.08C345.41 212.88 331.64 213.01 323 219.27C319.63 221.71 317.2 226.1 314.26 229.43C314.105 229.611 313.893 229.734 313.658 229.778C313.424 229.823 313.182 229.786 312.971 229.674C312.76 229.562 312.594 229.382 312.499 229.163C312.405 228.945 312.387 228.7 312.45 228.47C316.06 214.51 326.67 206.24 341.25 213.05C346.403 215.45 349.19 219.427 349.61 224.98C349.609 225.047 349.584 225.112 349.541 225.163C349.497 225.214 349.437 225.248 349.371 225.26C349.305 225.272 349.237 225.26 349.178 225.227C349.12 225.195 349.075 225.142 349.05 225.08Z" fill="#1E87A7"/>
<path d="M138.94 217.31C123.62 216.74 120.81 230.44 119.61 242.26C119.463 243.66 119.03 244.92 118.31 246.04C117.963 246.587 117.773 246.537 117.74 245.89C117.52 240.577 118.147 235.447 119.62 230.5C123.01 219.09 127.94 212.06 140.43 211.45C147.1 211.12 153.9 212.13 157.19 218.11C159.02 221.43 158.23 227.61 158.72 231.65C158.725 231.73 158.702 231.809 158.655 231.873C158.608 231.937 158.54 231.983 158.462 232.002C158.385 232.021 158.303 232.012 158.231 231.977C158.16 231.942 158.103 231.883 158.07 231.81C154.87 223.02 148.24 217.66 138.94 217.31Z" fill="#1E87A7"/>
<path d="M886.65 233.91C879.883 250.497 870.837 265.78 859.51 279.76C852.71 288.16 844.59 293.63 834.28 286.06C829.95 282.88 829.11 274.59 831.88 270.25C833.287 268.043 834.21 265.827 834.65 263.6C841.597 252.507 849.2 241.63 857.46 230.97C862.28 224.75 869.49 217.88 878.25 220.24C885.96 222.32 884.91 228.19 886.65 233.91Z" fill="#DA3A39"/>
<path d="M286.96 281.35C275.85 280.37 271.34 280.18 269.98 292.73C269.187 292.43 269.13 293.19 269.81 295.01C270.18 296.03 270.02 298.3 269.66 299.61C264.75 317.24 255.43 320.29 238.22 320.78C237.813 320.793 237.65 320.997 237.73 321.39C239.343 329.937 240.517 338.54 241.25 347.2C242.83 365.89 239.16 384.23 247.58 401.43C250.78 407.977 254.94 414.557 260.06 421.17C260.993 422.377 261.923 423.243 262.85 423.77C263.483 424.123 263.847 423.943 263.94 423.23C265.28 412.93 265.71 401.67 267.67 392.66C272.94 368.47 284.2 348.8 297.52 326.51C298.247 325.29 299.247 325.15 300.52 326.09C300.37 341.47 299.84 355.66 302.47 368.25C304.5 377.99 315.07 381.48 323.83 382.36C332.53 383.22 339.35 379.8 345.32 373.78C347.607 372.973 348.907 370.457 349.22 366.23C349.233 365.997 349.13 365.907 348.91 365.96C348.49 366.053 348.2 366.233 348.04 366.5C347.553 365.853 347.387 365.207 347.54 364.56C348.587 364.847 349.54 364.103 350.4 362.33C351.573 362.777 352.31 363.307 352.61 363.92C356.35 371.6 360.187 379.233 364.12 386.82C369.84 397.86 374.98 409.72 380.61 421.05C378.197 426.903 375.153 431.363 371.48 434.43C369.48 436.09 369.583 436.237 371.79 434.87C374.76 433.03 379.74 425.94 383.23 430.05C386.703 438.903 389.6 447.82 391.92 456.8C389.73 461.47 387.9 466.25 385.18 470.42C367.58 497.4 342.12 514.93 311.74 525.23C275.98 537.36 225.92 548.48 198.03 513.97C171.61 481.27 174.84 442.59 184.2 404.18C186.487 394.807 187.773 384.89 188.06 374.43C188.49 358.68 185.08 342.18 186.44 325.72C186.78 321.687 187.013 317.65 187.14 313.61C187.153 313.183 187.343 313.08 187.71 313.3C189.477 314.353 190.557 315.93 190.95 318.03C194.183 335.35 194.303 352.63 191.31 369.87C189.12 382.48 188.34 394.02 187.16 406.18C186.927 408.607 186.897 410.95 187.07 413.21C187.079 413.31 187.123 413.405 187.195 413.476C187.268 413.548 187.362 413.591 187.463 413.598C187.563 413.606 187.661 413.576 187.74 413.516C187.818 413.456 187.872 413.368 187.89 413.27C193.56 387.11 199.93 360.17 199.15 333.27C198.963 326.79 197.293 320.8 194.14 315.3C192.9 313.15 190.35 311.62 188.54 309.79C188.273 309.523 188.117 309.207 188.07 308.84C187.55 304.96 188.057 301.213 189.59 297.6C189.681 297.392 189.702 297.157 189.65 296.93L187.33 287.02C188.117 283.627 187.76 280.073 186.26 276.36C188.267 274.367 188.837 271.577 187.97 267.99C187.892 267.674 187.932 267.341 188.08 267.05C191.85 259.6 212.11 255.54 214.04 266.55C215.127 272.783 215.023 279.187 213.73 285.76C213.34 287.75 212.04 288.27 210.1 287.83C207.82 287.317 205.413 286.953 202.88 286.74C202.766 286.732 202.653 286.758 202.553 286.813C202.453 286.869 202.372 286.952 202.32 287.053C202.268 287.153 202.246 287.266 202.259 287.378C202.271 287.489 202.317 287.594 202.39 287.68C204.91 290.69 208.39 293.97 212.52 293.86C216.66 293.75 220.94 291.22 221.28 286.66C221.78 279.97 222.59 272.22 220.42 265.8C220.309 265.473 220.112 265.183 219.85 264.96C218.817 264.073 218.04 263.01 217.52 261.77C217.347 261.363 217.477 261.137 217.91 261.09C222.74 260.56 227.15 260.45 228.46 266.25C229.887 272.537 229.887 278.683 228.46 284.69C227.85 287.25 229.36 292.61 232.56 292.67C235.56 292.72 237.2 289.78 236.69 287C235.37 279.84 235.503 272.477 237.09 264.91C237.13 264.721 237.219 264.546 237.349 264.402C237.479 264.258 237.645 264.15 237.83 264.09C248.05 260.89 245.72 272.18 246.81 277.45C246.855 277.656 246.963 277.843 247.119 277.984C247.276 278.126 247.472 278.214 247.681 278.238C247.889 278.261 248.099 278.218 248.281 278.114C248.462 278.01 248.605 277.851 248.69 277.66C251.06 272.47 253.12 265.94 259.47 264.17C272.15 260.64 282.89 269.6 286.96 281.35ZM198.68 309.57C200.06 310.74 203.68 313.17 205.73 313C206.183 312.96 206.213 312.83 205.82 312.61C199.75 309.21 195.92 302.49 198.28 295.57C199.76 291.24 200.81 287.27 203.25 283.03C206.377 277.59 207.28 271.643 205.96 265.19C205.88 264.803 205.67 264.507 205.33 264.3C202.47 262.58 199.437 262.25 196.23 263.31C196.085 263.36 195.953 263.44 195.842 263.546C195.732 263.653 195.646 263.782 195.59 263.925C195.535 264.068 195.512 264.221 195.522 264.374C195.532 264.527 195.576 264.676 195.65 264.81C198.923 270.677 200.023 276.927 198.95 283.56C198.757 284.787 198.13 286.413 197.07 288.44C193.29 295.69 191.68 303.66 198.68 309.57ZM269.42 456.13C268.593 458.39 267.913 458.347 267.38 456C264.527 443.347 258.773 432.377 250.12 423.09C246.71 419.43 241.47 417.12 237.42 414.31C218.46 401.13 221.5 376.75 225.52 357.51C225.88 355.777 225.65 354.257 224.83 352.95C224.782 352.872 224.713 352.81 224.631 352.771C224.549 352.732 224.457 352.717 224.366 352.729C224.275 352.74 224.188 352.777 224.116 352.836C224.045 352.895 223.99 352.972 223.96 353.06C219.63 366.21 215.06 380.31 217.85 394.93C220.38 408.21 228.87 413.96 239.52 420.47C256.83 431.06 261.25 456.89 266.47 475.38C269.19 485.02 270.28 494.13 271.32 503.82C271.353 504.14 271.46 504.167 271.64 503.9C271.787 503.68 271.843 503.377 271.81 502.99C270.18 485.17 270.12 461.33 278.02 445.55C286.66 428.29 299.36 407.34 319.09 401.21C321.17 400.56 323.54 400.6 325.79 400.45C326.59 400.397 326.613 400.233 325.86 399.96C319.68 397.71 309.16 402.89 303.63 405.91C284.42 416.38 276.78 436.02 269.42 456.13Z" fill="#F8A379"/>
<path d="M79.9599 264.47V269.37C79.9599 270.03 79.6299 270.347 78.9699 270.32L69.0099 269.89C68.5826 269.872 68.159 269.977 67.7888 270.191C67.4187 270.405 67.1173 270.721 66.9199 271.1C63.9466 276.807 63.2433 283.313 64.8099 290.62C63.5233 290.913 63.1466 291.65 63.6799 292.83C66.0333 298.043 70.3266 300.87 76.5599 301.31C76.6872 301.32 76.8058 301.379 76.8913 301.474C76.9769 301.568 77.0229 301.692 77.0199 301.82L76.8799 308.13C76.8778 308.248 76.851 308.365 76.8012 308.472C76.7515 308.58 76.6797 308.676 76.5906 308.755C76.5014 308.834 76.3967 308.894 76.283 308.931C76.1693 308.968 76.0491 308.981 75.9299 308.97C71.7699 308.55 62.0599 307.62 59.1099 304.45C58.8788 304.199 58.7504 303.871 58.7499 303.53V292.53C58.7501 292.201 58.6225 291.885 58.3946 291.649C58.1666 291.414 57.8563 291.278 57.5299 291.27L24.0299 290.22C23.4699 290.2 23.0933 289.93 22.8999 289.41C20.9399 284.203 21.3766 279.073 24.2099 274.02C25.1799 272.28 27.8699 272.52 29.6799 272.53C39.5933 272.61 49.4833 273.02 59.3499 273.76C59.7233 273.787 59.9166 273.613 59.9299 273.24C60.0566 269.82 60.0999 266.427 60.0599 263.06C59.9899 257.44 77.2899 263.26 79.9599 264.47Z" fill="#F9CEB1"/>
<path d="M198.68 309.57C191.68 303.66 193.29 295.69 197.07 288.44C198.13 286.413 198.757 284.787 198.95 283.56C200.023 276.927 198.923 270.677 195.65 264.81C195.576 264.676 195.532 264.527 195.522 264.374C195.512 264.221 195.535 264.068 195.59 263.925C195.646 263.782 195.732 263.653 195.842 263.546C195.953 263.44 196.085 263.359 196.23 263.31C199.437 262.25 202.47 262.58 205.33 264.3C205.67 264.507 205.88 264.803 205.96 265.19C207.28 271.643 206.377 277.59 203.25 283.03C200.81 287.27 199.76 291.24 198.28 295.57C195.92 302.49 199.75 309.21 205.82 312.61C206.213 312.83 206.183 312.96 205.73 313C203.68 313.17 200.06 310.74 198.68 309.57Z" fill="#FCFDFF"/>
<path d="M622.77 438.03C623.857 439.083 625.07 439.98 626.41 440.72C626.477 440.753 626.533 440.766 626.58 440.76C626.66 440.733 626.72 440.666 626.76 440.56C626.793 440.486 626.78 440.426 626.72 440.38L623.37 437.73C617.75 433.643 614.21 428.41 612.75 422.03C611.48 416.45 615.93 411.34 619.64 407.88C627.09 400.95 643.92 395.96 653.58 399.83C671.44 407 680.31 427.36 685.53 444.2C685.554 444.271 685.599 444.333 685.66 444.377C685.72 444.421 685.793 444.444 685.867 444.444C685.941 444.444 686.012 444.421 686.07 444.377C686.129 444.333 686.17 444.271 686.19 444.2C687.6 439.49 688.6 433.98 686.36 429.31C678.09 412.05 665.46 395.13 646 389.59C645.66 389.49 645.32 389.493 644.98 389.6C638.83 391.51 631.96 393.23 626.71 396.27C619.52 400.46 615.04 405.89 609.08 411.25C608.44 411.83 608.11 411.686 608.09 410.82C607.81 396.72 607.86 381.78 605.5 368.36C603.17 355.07 600 341.42 594.2 329.12C591.45 323.29 588.14 317.61 586.59 311.32C586.503 310.973 586.64 310.8 587 310.8C594.96 310.846 602.587 312.423 609.88 315.53C610.069 315.607 610.28 315.614 610.473 315.55C610.665 315.486 610.828 315.354 610.93 315.18C611.297 314.54 611.243 313.923 610.77 313.33C607.69 309.49 591.15 308.16 586.31 307.86C586.111 307.847 585.917 307.789 585.744 307.688C585.57 307.587 585.422 307.448 585.31 307.28L578.44 296.84C578.153 296.4 578.27 296.173 578.79 296.16C583.157 296.053 587.973 296.68 593.24 298.04C608.14 301.88 621.68 305.56 634.79 312.32C667.27 329.06 690.96 352.68 707.44 385.36C710 390.44 711.603 394.866 712.25 398.64C713.123 403.753 712.973 408.55 711.8 413.03C708.22 426.66 703.93 440.51 701.8 454.1C699.66 467.746 698 481.46 696.82 495.24C696.807 495.36 696.843 495.466 696.93 495.56C696.99 495.62 697.053 495.68 697.12 495.74C697.132 495.751 697.146 495.759 697.162 495.762C697.178 495.765 697.194 495.765 697.21 495.759C697.225 495.754 697.239 495.745 697.249 495.733C697.26 495.721 697.267 495.706 697.27 495.69C699.46 479.79 704.08 466.77 710.67 444.93C716.99 424 724.37 406.54 740.63 391.47C743.903 388.436 749.223 384.443 756.59 379.49C776.49 366.1 789.92 358.12 803.96 343.22C810.76 336.006 817.423 328.836 823.95 321.71C826.263 319.19 826.873 319.553 825.78 322.8C823.307 330.16 820.833 338.403 818.36 347.53C815.87 356.68 812.39 366.04 806.07 373.28C798.35 382.12 789.553 389.09 779.68 394.19C772.44 397.923 767.83 400.4 765.85 401.62C750.76 410.93 743.74 424.08 739.97 440.98C739.863 441.48 739.897 442.316 740.07 443.49C740.117 443.796 740.187 443.803 740.28 443.51C743.253 434.336 747.88 426.266 754.16 419.3C764.53 407.79 780.25 401.53 792.48 392.03C801.673 384.876 809.577 376.43 816.19 366.69C827.22 350.44 827.77 328.43 841.84 313.99C848.027 307.636 855.593 303.253 864.54 300.84C867.67 300 870.14 296.9 871.45 293.59C873.13 289.356 875.223 285.353 877.73 281.58C880.24 277.8 885.35 276.27 888.46 279.98C893.82 286.36 888.72 297.86 889.34 305.08C889.354 305.247 889.415 305.407 889.517 305.541C889.618 305.675 889.756 305.777 889.914 305.834C890.072 305.892 890.243 305.904 890.407 305.867C890.571 305.831 890.721 305.749 890.84 305.63C898.69 297.8 901.1 281.74 901.02 270.07C900.99 265.39 907.84 266.53 910.19 268.27C911.303 269.09 912.24 270.463 913 272.39C920.07 290.33 912.71 312.32 900.88 326.41C893.51 335.19 885.22 339.71 873.92 338.61C868.34 338.07 862.34 337.02 857.59 339.38C849.59 343.36 845.33 354.42 843.5 362.49C842.82 365.51 842.38 371.096 842.18 379.25C841.873 391.663 841.313 403.33 840.5 414.25C837.74 451.57 822.95 487.23 795.42 512.66C769.42 536.68 729.94 545.6 695.57 540.9C654.557 535.293 621.16 516.026 595.38 483.1C594.59 482.08 592.59 480.54 593.25 478.8C600.277 459.906 605.16 440.15 607.9 419.53C607.92 419.362 607.994 419.205 608.111 419.083C608.229 418.96 608.382 418.88 608.55 418.853C608.717 418.825 608.888 418.853 609.038 418.932C609.188 419.011 609.308 419.137 609.38 419.29C613.04 426.64 615.32 432.19 622.77 438.03Z" fill="#F8A379"/>
<path d="M387.89 270.4C393.743 269.473 399.097 269.537 403.95 270.59C413.46 272.65 411.62 280.08 411.5 287.79C411.499 287.876 411.517 287.961 411.552 288.039C411.587 288.117 411.639 288.186 411.703 288.243C411.768 288.299 411.844 288.34 411.927 288.364C412.009 288.388 412.095 288.393 412.18 288.38C416.06 287.773 418.98 288.91 420.94 291.79C424.68 297.27 428.11 305.32 432.04 310.83C440.393 322.537 450.877 331.997 463.49 339.21C467.08 341.26 474.92 344.31 478.59 341.09C478.834 340.876 479.018 340.603 479.126 340.297C479.233 339.991 479.26 339.662 479.204 339.343C479.147 339.023 479.01 338.724 478.804 338.473C478.599 338.222 478.332 338.028 478.03 337.91C463.65 332.34 451.88 325.11 442.33 312.99C436.09 305.08 430.99 293.78 426.42 283.89C426.363 283.768 426.34 283.633 426.354 283.499C426.367 283.365 426.416 283.237 426.496 283.129C426.576 283.02 426.683 282.935 426.807 282.883C426.931 282.83 427.067 282.812 427.2 282.83C431.32 283.357 435.29 283.133 439.11 282.16C439.94 298.59 449.09 308.68 462.19 318.14C483.83 333.77 526.31 339.35 539.64 308.69C542.81 301.39 542.19 294.45 540.33 285.47C547.097 288.243 551.467 290.353 553.44 291.8C560.65 297.11 565.23 306.08 568.23 314.29C574.783 332.217 579.397 350.627 582.07 369.52C586.89 403.53 587 435.79 577.99 468.92C571.097 494.233 562.38 518.903 551.84 542.93C550.227 546.597 548.463 550.863 546.55 555.73C542.62 565.73 538.16 575.46 535.87 586.78C535.797 587.133 535.603 587.393 535.29 587.56C506.44 603.05 459 602.35 430.95 586.79C423.95 582.91 419.03 579.77 418.7 571.81C418.433 565.257 418.68 557.07 419.44 547.25C420.23 536.98 420.03 525.87 419.1 515.78C417.46 497.98 415.3 480.19 410.73 462.83C402.11 430.11 391.73 398.66 374.25 370.69C369.76 363.49 363.87 355.81 358.57 348.32C358.492 348.21 358.384 348.123 358.259 348.071C358.134 348.018 357.997 348.001 357.863 348.022C357.729 348.042 357.604 348.1 357.501 348.188C357.398 348.276 357.321 348.391 357.28 348.52C355.72 353.373 353.427 357.977 350.4 362.33C349.54 364.103 348.587 364.847 347.54 364.56L350.93 337.33C350.97 336.997 351.15 336.877 351.47 336.97C356.063 338.317 361.247 338.987 367.02 338.98C369.793 338.973 371.337 337.703 371.65 335.17C372.17 331.023 372.37 326.78 372.25 322.44C372.223 321.333 372.733 320.953 373.78 321.3C377.107 322.38 380.457 322.387 383.83 321.32C384.17 321.213 384.383 320.987 384.47 320.64C385.76 315.56 385.25 310.01 385.25 304.78C385.25 304.447 385.417 304.313 385.75 304.38L392.73 305.87C396.923 307.71 401.34 307.823 405.98 306.21C406.773 305.93 407.25 305.273 407.41 304.24C408.523 296.987 408.38 290.123 406.98 283.65C406.947 283.501 406.874 283.363 406.771 283.251C406.667 283.139 406.536 283.056 406.39 283.01C405.777 282.81 405.293 283.077 404.94 283.81C405.133 280.057 403.48 278.11 399.98 277.97C395.82 277.803 391.663 278.047 387.51 278.7C387.433 278.711 387.354 278.705 387.28 278.681C387.206 278.658 387.138 278.618 387.082 278.565C387.026 278.512 386.983 278.447 386.957 278.375C386.931 278.303 386.921 278.226 386.93 278.15L387.89 270.4ZM401.62 367.39C411.4 376.29 422.17 382 434.71 387.77C436.657 388.67 438.49 389.177 440.21 389.29C440.372 389.303 440.535 389.282 440.69 389.231C440.844 389.179 440.987 389.098 441.11 388.99C442.83 387.49 442.21 386.01 440.34 385.03C418.447 373.523 400.087 358.087 385.26 338.72C384.733 338.033 384.173 337.507 383.58 337.14C383.287 336.953 382.977 336.91 382.65 337.01C379.2 338.05 379.26 340.88 381.02 343.5C386.92 352.293 393.787 360.257 401.62 367.39ZM524.12 399.24C530.65 405.35 536.35 414.98 541.64 422.31C545.96 428.28 549.44 431.15 556.49 431.8C556.587 431.807 556.684 431.782 556.765 431.729C556.847 431.676 556.91 431.599 556.944 431.507C556.977 431.416 556.981 431.316 556.953 431.223C556.925 431.13 556.868 431.048 556.79 430.99C549.55 425.74 542.92 419.6 538.57 411.48C532.01 399.27 525.83 387.42 518.24 375.32C513.11 367.14 508.48 358.15 502.42 350.63C502.355 350.557 502.266 350.51 502.169 350.497C502.072 350.485 501.974 350.507 501.892 350.56C501.81 350.613 501.75 350.693 501.722 350.787C501.694 350.88 501.7 350.981 501.74 351.07C506.733 360.903 511.593 370.903 516.32 381.07C528.2 406.64 494.64 435.62 471.26 434.03C471.053 434.01 470.863 434.053 470.69 434.16C470.323 434.373 470.347 434.517 470.76 434.59C488.46 437.65 505.58 430.81 515.86 416.89C519.61 411.81 521.58 405.73 523 399.57C523.027 399.456 523.083 399.35 523.164 399.265C523.245 399.18 523.347 399.117 523.46 399.084C523.574 399.051 523.694 399.047 523.81 399.075C523.926 399.102 524.033 399.159 524.12 399.24ZM453.879 409.502C453.937 408.854 453.794 408.195 453.458 407.562C453.122 406.929 452.599 406.335 451.921 405.813C451.242 405.291 450.42 404.851 449.502 404.52C448.584 404.188 447.588 403.97 446.57 403.88C444.515 403.696 442.497 404.04 440.962 404.835C439.426 405.63 438.498 406.811 438.381 408.118C438.323 408.766 438.466 409.425 438.802 410.058C439.138 410.691 439.661 411.285 440.339 411.807C441.018 412.329 441.84 412.769 442.758 413.1C443.676 413.432 444.672 413.65 445.69 413.74C447.745 413.924 449.763 413.58 451.298 412.785C452.834 411.99 453.763 410.809 453.879 409.502ZM541.71 451.35C537.21 451.903 532.883 452.473 528.73 453.06C508.78 455.87 486.4 453.85 466.52 450.9C462.46 450.3 458.39 450.53 454.31 450.52C453.797 450.513 453.393 451.047 453.1 452.12C452.4 450.487 451.203 450.253 449.51 451.42C449.371 451.516 449.255 451.641 449.17 451.786C449.085 451.932 449.033 452.095 449.018 452.263C449.002 452.431 449.024 452.6 449.082 452.758C449.139 452.917 449.231 453.061 449.35 453.18C462.38 466.21 480.15 471.6 498.56 472.03C518.02 472.48 542.17 469.8 552.99 450.73C553.126 450.491 553.193 450.218 553.183 449.942C553.173 449.667 553.086 449.4 552.932 449.171C552.778 448.942 552.564 448.761 552.312 448.648C552.061 448.535 551.783 448.494 551.51 448.53C548.03 448.977 544.763 449.917 541.71 451.35ZM454.54 483.13C459.69 486.08 463.91 489.59 468.32 491.94C481.24 498.83 499.84 502.44 513.97 496.61C521.69 493.42 528.12 486.25 533.52 479.63C533.567 479.575 533.598 479.508 533.607 479.436C533.617 479.364 533.605 479.291 533.573 479.225C533.542 479.159 533.492 479.102 533.429 479.062C533.367 479.023 533.294 479.001 533.22 479H532.48C532.153 479 531.863 479.103 531.61 479.31C527.4 482.72 523.04 486.71 518.32 488.93C497.77 498.59 473.62 492.57 455.55 480.82C455.377 480.706 455.178 480.641 454.971 480.631C454.765 480.621 454.559 480.667 454.375 480.764C454.192 480.861 454.037 481.005 453.927 481.182C453.817 481.359 453.756 481.562 453.75 481.77C453.73 482.363 453.993 482.817 454.54 483.13ZM455.07 512.34C454.11 512.173 453.313 512.3 452.68 512.72C452.56 512.803 452.464 512.914 452.399 513.043C452.334 513.173 452.304 513.316 452.31 513.46C453 527.58 468.68 530.27 479.26 533.52C479.587 533.62 479.69 533.833 479.57 534.16C475.85 544.41 467.79 553.84 456.45 554.45C449.96 554.79 444.34 551.03 439.78 546.69C439.46 546.383 439.21 546.43 439.03 546.83C435.73 554.17 449.1 561.36 454.42 562.25C461.67 563.45 472.97 556.57 478.25 552.24C483.43 547.987 486.537 542.427 487.57 535.56C487.623 535.233 487.813 535.08 488.14 535.1C500.77 535.91 513.69 528.47 517.25 515.78C518.07 512.853 517.267 512.303 514.84 514.13L501.93 523.86C501.143 520.527 499.35 518.163 496.55 516.77C496.254 516.629 495.915 516.604 495.6 516.7C490.09 518.43 484.16 521.04 478.34 521.03C469.65 521.02 462.64 520.67 457.82 512.3C457.46 511.667 457.073 511.327 456.66 511.28C456.08 511.22 455.55 511.573 455.07 512.34ZM528.92 520.68C537.88 521.7 547.38 522.32 555.32 527.1C555.442 527.177 555.587 527.206 555.729 527.181C555.871 527.156 555.998 527.08 556.087 526.966C556.175 526.853 556.218 526.711 556.208 526.567C556.197 526.424 556.134 526.289 556.03 526.19C548.357 518.35 539.203 516.07 528.57 519.35C528.441 519.392 528.329 519.473 528.247 519.581C528.166 519.69 528.12 519.821 528.116 519.956C528.111 520.091 528.149 520.225 528.223 520.338C528.297 520.452 528.404 520.54 528.53 520.59C528.643 520.63 528.773 520.66 528.92 520.68ZM457.79 589.73C471.06 590.94 485.94 583.12 492.98 572.11C493.14 571.857 493.357 571.787 493.63 571.9C504.583 576.527 515.513 576.77 526.42 572.63C535.67 569.12 538.91 562.77 544.55 553.98C545.64 552.28 547.6 550.37 548.28 547.82C548.4 547.367 548.25 547.243 547.83 547.45C539.68 551.38 535.85 555.71 530.25 561.23C517.92 573.38 510.11 570.67 493.78 568.95C493.38 568.903 493.22 568.687 493.3 568.3C494.61 561.94 493.13 558.73 486.39 561.15C485.983 561.297 485.853 561.577 486 561.99C486.213 562.563 486.567 563.04 487.06 563.42C487.328 563.636 487.529 563.924 487.64 564.25C490.33 572.35 475.14 582.58 469.54 585.47C466.03 587.29 461.93 587.86 457.72 588.87C457.622 588.898 457.537 588.959 457.479 589.043C457.422 589.126 457.394 589.227 457.403 589.329C457.411 589.43 457.454 589.525 457.525 589.599C457.595 589.672 457.689 589.718 457.79 589.73Z" fill="#F8A379"/>
<path d="M392.73 305.87C405.98 306.41 406.19 293.17 404.94 283.81C405.293 283.077 405.777 282.81 406.39 283.01C406.536 283.056 406.667 283.139 406.771 283.251C406.874 283.363 406.947 283.501 406.98 283.65C408.38 290.123 408.523 296.987 407.41 304.24C407.25 305.273 406.773 305.93 405.98 306.21C401.34 307.823 396.923 307.71 392.73 305.87Z" fill="#FCFDFF"/>
<path d="M391.92 456.8C389.6 447.82 386.703 438.904 383.23 430.05C382.917 427.07 382.043 424.07 380.61 421.05C374.98 409.72 369.84 397.86 364.12 386.82C360.187 379.234 356.35 371.6 352.61 363.92C352.31 363.307 351.573 362.777 350.4 362.33C353.427 357.977 355.72 353.374 357.28 348.52C357.321 348.391 357.398 348.276 357.501 348.188C357.604 348.1 357.729 348.043 357.863 348.022C357.997 348.001 358.134 348.018 358.259 348.071C358.384 348.123 358.491 348.21 358.57 348.32C363.87 355.81 369.76 363.49 374.25 370.69C391.73 398.66 402.11 430.11 410.73 462.83C415.3 480.19 417.46 497.98 419.1 515.78C420.03 525.87 420.23 536.98 419.44 547.25C418.68 557.07 418.433 565.257 418.7 571.81C419.03 579.77 423.95 582.91 430.95 586.79C459 602.35 506.44 603.05 535.29 587.56C535.603 587.394 535.797 587.134 535.87 586.78C538.16 575.46 542.62 565.73 546.55 555.73C548.463 550.864 550.227 546.597 551.84 542.93C562.38 518.904 571.097 494.234 577.99 468.92C587 435.79 586.89 403.53 582.07 369.52C579.397 350.627 574.783 332.217 568.23 314.29C565.23 306.08 560.65 297.11 553.44 291.8C551.467 290.354 547.097 288.244 540.33 285.47C539.737 285.424 539.807 285.22 540.54 284.86C549.58 285.47 557.32 282.25 564.61 288.84C567.857 291.774 571.337 295.854 575.05 301.08C584.59 314.51 591.51 333.45 595.35 348.68C601.25 372.07 605.94 389.39 605.03 409.42C604.86 413.13 606.12 417.05 605.84 420.76C604.14 443.56 597.2 466.28 588.59 488.55C581.83 506.03 575.31 523.6 569.03 541.26C563.18 557.71 557.7 575.08 557.5 592.25C557.37 603.46 558.66 614.44 560.7 626.81C566.68 663.09 573.51 697.45 577.91 735.82C580 754.08 580.63 772.83 581.56 791.1C581.6 791.954 581.193 792.39 580.34 792.41C513.44 793.82 453.5 795.61 381.06 796.86C375.533 796.96 371.717 797.017 369.61 797.03C369.223 797.03 368.997 796.844 368.93 796.47C366.937 785.477 364.86 774.51 362.7 763.57C359.33 746.44 356.83 729.44 354.08 712.37C349 680.87 353.29 650.91 369.43 623.17C380.77 603.66 392.85 584.68 401.9 563.92C403.013 561.36 403.79 558.704 404.23 555.95C408.71 527.97 405.19 502.12 398.49 474.5C396.95 468.187 394.76 462.287 391.92 456.8Z" fill="#AA360A"/>
<path d="M401.62 367.39C393.787 360.257 386.92 352.293 381.02 343.5C379.26 340.88 379.2 338.05 382.65 337.01C382.977 336.91 383.287 336.953 383.58 337.14C384.173 337.507 384.733 338.033 385.26 338.72C400.087 358.087 418.447 373.523 440.34 385.03C442.21 386.01 442.83 387.49 441.11 388.99C440.987 389.097 440.844 389.179 440.69 389.231C440.535 389.282 440.372 389.302 440.21 389.29C438.49 389.177 436.657 388.67 434.71 387.77C422.17 382 411.4 376.29 401.62 367.39Z" fill="#FCFDFF"/>
<path d="M123.79 359.95C119.563 357.357 119.69 357.127 124.17 359.26C126.404 360.327 129.53 360.58 133.55 360.02C141.99 358.85 149.39 360.92 155.43 353.16C155.535 353.028 155.604 352.873 155.63 352.71L156.24 348.52C156.257 348.456 156.296 348.4 156.35 348.362C156.404 348.324 156.47 348.306 156.536 348.312C156.602 348.318 156.664 348.347 156.71 348.395C156.757 348.442 156.785 348.504 156.79 348.57C156.28 361.49 141.89 361.02 132.73 361.76C129.203 362.047 126.223 361.443 123.79 359.95Z" fill="#1E87A7"/>
<path d="M524.12 399.24C524.033 399.159 523.926 399.102 523.81 399.075C523.694 399.047 523.574 399.05 523.46 399.084C523.347 399.117 523.245 399.18 523.164 399.265C523.083 399.35 523.027 399.455 523 399.57C521.58 405.73 519.61 411.81 515.86 416.89C505.58 430.81 488.46 437.65 470.76 434.59C470.347 434.517 470.323 434.373 470.69 434.16C470.863 434.053 471.053 434.01 471.26 434.03C494.64 435.62 528.2 406.64 516.32 381.07C511.593 370.903 506.733 360.903 501.74 351.07C501.7 350.981 501.694 350.88 501.722 350.787C501.75 350.693 501.81 350.612 501.892 350.559C501.974 350.506 502.072 350.484 502.169 350.497C502.266 350.51 502.355 350.557 502.42 350.63C508.48 358.15 513.11 367.14 518.24 375.32C525.83 387.42 532.01 399.27 538.57 411.48C542.92 419.6 549.55 425.74 556.79 430.99C556.868 431.048 556.925 431.13 556.953 431.223C556.98 431.316 556.977 431.416 556.943 431.507C556.91 431.599 556.847 431.676 556.765 431.729C556.684 431.782 556.587 431.807 556.49 431.8C549.44 431.15 545.96 428.28 541.64 422.31C536.35 414.98 530.65 405.35 524.12 399.24Z" fill="#F18B75"/>
<path d="M269.42 456.13C276.78 436.02 284.42 416.38 303.63 405.91C309.16 402.89 319.68 397.71 325.86 399.96C326.613 400.233 326.59 400.397 325.79 400.45C323.54 400.6 321.17 400.56 319.09 401.21C299.36 407.34 286.66 428.29 278.02 445.55C270.12 461.33 270.18 485.17 271.81 502.99C271.843 503.377 271.787 503.68 271.64 503.9C271.46 504.167 271.353 504.14 271.32 503.82C270.28 494.13 269.19 485.02 266.47 475.38C261.25 456.89 256.83 431.06 239.52 420.47C228.87 413.96 220.38 408.21 217.85 394.93C215.06 380.31 219.63 366.21 223.96 353.06C223.99 352.973 224.045 352.895 224.116 352.836C224.188 352.778 224.275 352.74 224.366 352.729C224.457 352.717 224.549 352.732 224.631 352.771C224.713 352.81 224.782 352.872 224.83 352.95C225.65 354.257 225.88 355.777 225.52 357.51C221.5 376.75 218.46 401.13 237.42 414.31C241.47 417.12 246.71 419.43 250.12 423.09C258.773 432.377 264.527 443.347 267.38 456C267.913 458.347 268.593 458.39 269.42 456.13Z" fill="#FCFDFF"/>
<path d="M345.32 373.78C346.813 371.48 347.72 369.054 348.04 366.5C348.2 366.234 348.49 366.054 348.91 365.96C349.13 365.907 349.233 365.997 349.22 366.23C348.907 370.457 347.607 372.974 345.32 373.78Z" fill="#F9CEB1"/>
<path d="M445.69 413.74C449.97 414.122 453.636 412.225 453.879 409.502C454.122 406.779 450.85 404.262 446.57 403.88C442.29 403.498 438.624 405.395 438.381 408.118C438.138 410.841 441.41 413.358 445.69 413.74Z" fill="#FF6362"/>
<path d="M380.61 421.05C382.043 424.07 382.917 427.07 383.23 430.05C379.74 425.94 374.76 433.03 371.79 434.87C369.583 436.236 369.48 436.09 371.48 434.43C375.153 431.363 378.197 426.903 380.61 421.05Z" fill="#FCFDFF"/>
<path d="M623.37 437.73L626.72 440.38C626.78 440.427 626.793 440.487 626.76 440.56C626.72 440.667 626.66 440.733 626.58 440.76C626.533 440.767 626.477 440.753 626.41 440.72C625.07 439.98 623.857 439.083 622.77 438.03C622.923 438.083 623.123 437.983 623.37 437.73Z" fill="#F9CEB1"/>
<path d="M453.1 452.12C461.667 457.293 471.213 460.513 481.74 461.78C499.05 463.86 527.63 463.48 541.71 451.35C544.763 449.917 548.03 448.977 551.51 448.53C551.783 448.494 552.061 448.535 552.312 448.648C552.564 448.761 552.778 448.942 552.932 449.171C553.086 449.4 553.173 449.667 553.183 449.942C553.193 450.218 553.126 450.49 552.99 450.73C542.17 469.8 518.02 472.48 498.56 472.03C480.15 471.6 462.38 466.21 449.35 453.18C449.231 453.061 449.139 452.917 449.082 452.758C449.024 452.6 449.002 452.43 449.018 452.262C449.033 452.094 449.085 451.932 449.17 451.786C449.255 451.641 449.371 451.516 449.51 451.42C451.203 450.253 452.4 450.487 453.1 452.12Z" fill="#F18B75"/>
<path d="M541.71 451.35C527.63 463.48 499.05 463.86 481.74 461.78C471.213 460.513 461.667 457.293 453.1 452.12C453.393 451.047 453.797 450.513 454.31 450.52C458.39 450.53 462.46 450.3 466.52 450.9C486.4 453.85 508.78 455.87 528.73 453.06C532.883 452.473 537.21 451.903 541.71 451.35Z" fill="#FCFDFF"/>
<path d="M454.54 483.13C453.993 482.817 453.73 482.363 453.75 481.77C453.756 481.562 453.817 481.359 453.927 481.182C454.037 481.005 454.192 480.861 454.376 480.764C454.559 480.667 454.765 480.621 454.971 480.631C455.178 480.641 455.378 480.706 455.55 480.82C473.62 492.57 497.77 498.59 518.32 488.93C523.04 486.71 527.4 482.72 531.61 479.31C531.863 479.103 532.153 479 532.48 479H533.22C533.294 479.001 533.367 479.023 533.429 479.062C533.492 479.102 533.542 479.158 533.573 479.225C533.605 479.291 533.617 479.364 533.607 479.436C533.598 479.508 533.568 479.575 533.52 479.63C528.12 486.25 521.69 493.42 513.97 496.61C499.84 502.44 481.24 498.83 468.32 491.94C463.91 489.59 459.69 486.08 454.54 483.13Z" fill="#FD8E73"/>
<path d="M501.93 523.86C497.41 527.553 491.927 528.93 485.48 527.99C480.08 527.2 449.41 522.14 455.07 512.34C455.55 511.573 456.08 511.22 456.66 511.28C457.073 511.327 457.46 511.667 457.82 512.3C462.64 520.67 469.65 521.02 478.34 521.03C484.16 521.04 490.09 518.43 495.6 516.7C495.915 516.604 496.254 516.629 496.55 516.77C499.35 518.163 501.143 520.527 501.93 523.86Z" fill="#FCFDFF"/>
<path d="M455.07 512.34C449.41 522.14 480.08 527.2 485.48 527.99C491.927 528.93 497.41 527.553 501.93 523.86L514.84 514.13C517.267 512.303 518.07 512.853 517.25 515.78C513.69 528.47 500.77 535.91 488.14 535.1C487.813 535.08 487.623 535.233 487.57 535.56C486.537 542.427 483.43 547.987 478.25 552.24C472.97 556.57 461.67 563.45 454.42 562.25C449.1 561.36 435.73 554.17 439.03 546.83C439.21 546.43 439.46 546.383 439.78 546.69C444.34 551.03 449.96 554.79 456.45 554.45C467.79 553.84 475.85 544.41 479.57 534.16C479.69 533.833 479.587 533.62 479.26 533.52C468.68 530.27 453 527.58 452.31 513.46C452.304 513.316 452.334 513.173 452.399 513.043C452.464 512.914 452.56 512.803 452.68 512.72C453.313 512.3 454.11 512.173 455.07 512.34Z" fill="#F18B75"/>
<path d="M528.92 520.68C528.773 520.66 528.643 520.63 528.53 520.59C528.404 520.54 528.297 520.452 528.223 520.339C528.149 520.225 528.111 520.092 528.116 519.956C528.12 519.821 528.166 519.69 528.247 519.581C528.329 519.473 528.441 519.392 528.57 519.35C539.203 516.07 548.357 518.35 556.03 526.19C556.134 526.29 556.197 526.424 556.208 526.567C556.218 526.711 556.175 526.853 556.087 526.966C555.998 527.08 555.871 527.156 555.729 527.181C555.587 527.206 555.442 527.177 555.32 527.1C547.38 522.32 537.88 521.7 528.92 520.68Z" fill="#F18B75"/>
<path d="M457.72 588.87C461.93 587.86 466.03 587.29 469.54 585.47C475.14 582.58 490.33 572.35 487.64 564.25C487.529 563.924 487.328 563.636 487.06 563.42C486.567 563.04 486.213 562.563 486 561.99C485.853 561.577 485.983 561.297 486.39 561.15C493.13 558.73 494.61 561.94 493.3 568.3C493.22 568.687 493.38 568.903 493.78 568.95C510.11 570.67 517.92 573.38 530.25 561.23C535.85 555.71 539.68 551.38 547.83 547.45C548.25 547.243 548.4 547.367 548.28 547.82C547.6 550.37 545.64 552.28 544.55 553.98C538.91 562.77 535.67 569.12 526.42 572.63C515.513 576.77 504.583 576.527 493.63 571.9C493.357 571.787 493.14 571.857 492.98 572.11C485.94 583.12 471.06 590.94 457.79 589.73C457.689 589.718 457.595 589.672 457.525 589.599C457.454 589.525 457.411 589.43 457.403 589.329C457.394 589.227 457.421 589.126 457.479 589.043C457.537 588.959 457.622 588.898 457.72 588.87Z" fill="#F18B75"/>
<path d="M349 317C342.011 336.58 345.017 342.747 351.5 362.5C359.691 387.458 390 416.5 390 416.5L410.5 508V558.5V609.5L532.5 616.5L555.5 568L583.5 472L597.5 397L583.5 331L555.5 286C555.5 286 543.5 283 540 286C536.5 289 534.073 301.348 526.5 308C514.04 318.944 501.578 317.415 485 317C470.134 316.628 461.009 315.205 448 308C434.834 300.709 438.353 292.275 426.5 283C420.869 278.594 410.988 270.244 399.5 268.5C393.322 267.562 389.649 269.39 383.5 270.5C363.389 274.132 355.871 297.753 349 317Z" fill="#AA360A"/>
<path d="M387.89 270.4L386.93 278.15C386.921 278.226 386.931 278.303 386.957 278.375C386.983 278.447 387.026 278.512 387.082 278.565C387.138 278.618 387.206 278.658 387.28 278.681C387.354 278.704 387.433 278.711 387.51 278.7C391.663 278.047 395.82 277.803 399.98 277.97C403.48 278.11 405.133 280.057 404.94 283.81C406.19 293.17 405.98 306.41 392.73 305.87L385.75 304.38C385.417 304.313 385.25 304.447 385.25 304.78C385.25 310.01 385.76 315.56 384.47 320.64C384.383 320.987 384.17 321.213 383.83 321.32C380.457 322.387 377.107 322.38 373.78 321.3C372.733 320.953 372.223 321.333 372.25 322.44C372.37 326.78 372.17 331.023 371.65 335.17C371.337 337.703 369.793 338.973 367.02 338.98C361.247 338.987 356.063 338.317 351.47 336.97C351.15 336.877 350.97 336.997 350.93 337.33L347.54 364.56C347.387 365.207 347.553 365.853 348.04 366.5C347.72 369.053 346.813 371.48 345.32 373.78C339.35 379.8 332.53 383.22 323.83 382.36C315.07 381.48 304.5 377.99 302.47 368.25C299.84 355.66 300.37 341.47 300.52 326.09C301.04 318.43 301.057 310.823 300.57 303.27C300.55 302.943 300.383 302.833 300.07 302.94C293.12 305.36 285.61 303.33 278.91 300.84C273.99 299.01 270.31 298.06 269.98 292.73C271.34 280.18 275.85 280.37 286.96 281.35C291.733 281.07 296.217 281.393 300.41 282.32C300.737 282.387 300.9 282.257 300.9 281.93C301.093 267.63 302.043 253.383 303.75 239.19C305.25 226.74 306.15 207.8 319.37 203.95C329.01 201.13 348.86 201.1 353.4 212.82C356.76 221.52 357.77 229.29 358.76 239.96C358.793 240.34 359 240.523 359.38 240.51C371.56 240.04 372.11 246.1 372.01 256.14C372.01 256.447 372.163 256.58 372.47 256.54C375.19 256.17 386.8 255.18 387.72 260C388.12 262.067 388.177 265.533 387.89 270.4ZM323 219.27C331.64 213.01 345.41 212.88 349.05 225.08C349.074 225.142 349.12 225.194 349.178 225.227C349.237 225.26 349.305 225.271 349.371 225.26C349.437 225.248 349.497 225.214 349.541 225.163C349.584 225.112 349.609 225.047 349.61 224.98C349.19 219.427 346.403 215.45 341.25 213.05C326.67 206.24 316.06 214.51 312.45 228.47C312.387 228.7 312.405 228.944 312.499 229.163C312.594 229.382 312.76 229.562 312.971 229.674C313.182 229.786 313.424 229.822 313.658 229.778C313.893 229.734 314.105 229.611 314.26 229.43C317.2 226.1 319.63 221.71 323 219.27Z" fill="#00242F"/>
</svg>
