<svg width="761" height="731" viewBox="0 0 761 731" fill="none" xmlns="http://www.w3.org/2000/svg">
<path d="M641.47 18.28C656.83 27.26 669.13 40.01 677.51 55.72C690.37 79.85 689.8 109.61 672.54 131.58C667.793 137.627 662.99 143.643 658.13 149.63C657.903 149.91 657.617 150.073 657.27 150.12C650.643 151.027 644.52 153.247 638.9 156.78C638.56 156.993 638.223 156.993 637.89 156.78C631.257 152.487 623.97 150.077 616.03 149.55C615.876 149.537 615.728 149.482 615.603 149.391C615.478 149.299 615.38 149.174 615.32 149.03C611.96 140.57 607.69 131.24 606.25 123.03C602.37 100.88 612.25 78.34 628.49 63.55C628.548 63.4947 628.624 63.4623 628.704 63.4589C628.784 63.4554 628.862 63.4812 628.925 63.5313C628.987 63.5815 629.029 63.6527 629.043 63.7315C629.057 63.8104 629.042 63.8916 629 63.96C624.527 71.5334 622.62 79.7267 623.28 88.54C623.282 88.5853 623.297 88.6289 623.322 88.6665C623.347 88.7042 623.382 88.7346 623.424 88.7548C623.465 88.775 623.511 88.7843 623.558 88.7817C623.605 88.7791 623.65 88.7647 623.69 88.74C645.68 74.6 655.48 41.09 641.34 18.4C641.329 18.3822 641.324 18.3611 641.327 18.3403C641.33 18.3195 641.34 18.3003 641.355 18.2861C641.371 18.2718 641.391 18.2634 641.412 18.2623C641.433 18.2612 641.453 18.2675 641.47 18.28Z" fill="white"/>
<path d="M708.69 136.62C719.44 135.28 723.73 125.62 725.91 116.51C725.931 116.418 725.981 116.335 726.052 116.274C726.124 116.212 726.214 116.175 726.308 116.168C726.402 116.162 726.496 116.185 726.575 116.236C726.655 116.287 726.716 116.362 726.75 116.45C742.18 155.35 745.88 200.99 724.38 238.36C706.09 270.14 672.72 291.13 635.49 290.24C632.437 290.167 629.62 289.86 627.04 289.32C584.59 280.47 552.23 248.7 542.52 206.49C532.67 163.65 547.74 104.35 587.27 79.23C587.329 79.1904 587.4 79.1729 587.47 79.1804C587.541 79.1879 587.606 79.22 587.656 79.2714C587.707 79.3227 587.738 79.3903 587.746 79.4628C587.754 79.5352 587.738 79.6084 587.7 79.67C585.08 83.71 582.28 87.98 580.78 92.45C575.17 109.14 578.63 125.24 590.47 138.12C593.96 141.91 598.13 145.9 600.37 150.28C600.57 150.673 600.46 150.937 600.04 151.07C580.86 157.15 568.18 171.83 565.25 191.49C561.85 214.28 573.18 234.6 590.05 249.44C602.497 260.387 617.577 272.313 635.29 285.22C639.1 288 640.5 286.27 644.27 283.8C660.41 273.227 675.493 261.35 689.52 248.17C695.64 242.423 700.11 237.5 702.93 233.4C722.99 204.29 715.35 163.4 680.31 150.77C680.188 150.726 680.076 150.658 679.982 150.569C679.888 150.48 679.814 150.372 679.764 150.252C679.714 150.133 679.69 150.004 679.693 149.874C679.695 149.745 679.725 149.617 679.78 149.5C682.087 144.487 684.957 139.877 688.39 135.67C695.15 127.37 702.247 119.13 709.68 110.95C709.722 110.906 709.776 110.875 709.836 110.864C709.896 110.852 709.958 110.859 710.013 110.885C710.068 110.91 710.114 110.952 710.144 111.005C710.174 111.058 710.187 111.119 710.18 111.18C709.13 118.83 707.35 128.41 708.05 136.11C708.09 136.497 708.303 136.667 708.69 136.62Z" fill="white"/>
<path d="M481.03 240.38C503.596 240.38 521.89 222.086 521.89 199.52C521.89 176.954 503.596 158.66 481.03 158.66C458.464 158.66 440.17 176.954 440.17 199.52C440.17 222.086 458.464 240.38 481.03 240.38Z" fill="white"/>
<path d="M409.71 160.52H282.53C276.217 160.52 271.1 165.637 271.1 171.95V172.37C271.1 178.683 276.217 183.8 282.53 183.8H409.71C416.023 183.8 421.14 178.683 421.14 172.37V171.95C421.14 165.637 416.023 160.52 409.71 160.52Z" fill="#F6664B"/>
<path d="M639.5 172.49C640.54 171.63 641.583 170.767 642.63 169.9C663.69 152.46 694.23 165.85 699.51 191.38C702.58 206.25 696.89 220.27 686.33 231.11C672.25 245.57 656.07 258.17 640.3 270.73C640.033 270.943 639.77 270.943 639.51 270.73C631.377 264.33 623.31 257.827 615.31 251.22C601.89 240.14 586.03 228.42 580.54 212.53C570.45 183.29 598.65 150.76 628.87 165.79C632 167.35 635.34 170.43 638.59 172.54C638.903 172.74 639.207 172.723 639.5 172.49Z" fill="#F6664B"/>
<path d="M403.05 207.77H174.99C168.688 207.77 163.58 212.878 163.58 219.18V219.44C163.58 225.742 168.688 230.85 174.99 230.85H403.05C409.352 230.85 414.46 225.742 414.46 219.44V219.18C414.46 212.878 409.352 207.77 403.05 207.77Z" fill="#F6664B"/>
<path d="M207.65 247.83H83.13C76.9057 247.83 71.86 252.876 71.86 259.1V259.52C71.86 265.744 76.9057 270.79 83.13 270.79H207.65C213.874 270.79 218.92 265.744 218.92 259.52V259.1C218.92 252.876 213.874 247.83 207.65 247.83Z" fill="#F6664B"/>
<path d="M507.31 542.33C482.99 570.6 455.62 595.64 427.64 619.81C418.24 627.93 410.72 635.21 404.79 644.29C397.44 655.55 395.61 672.57 395.97 685.65C395.974 685.742 395.95 685.834 395.899 685.912C395.849 685.989 395.775 686.049 395.688 686.082C395.602 686.115 395.507 686.12 395.418 686.097C395.328 686.073 395.249 686.022 395.19 685.95C378.04 665.98 374.85 635.46 390.48 613.71C411.407 584.603 430.523 555.883 447.83 527.55C454.02 517.42 457.64 505.29 443.99 499.42C434.49 495.33 423.88 493.68 413.67 492.43C386.94 489.16 355.2 488.08 334.64 468.15C330.2 463.86 326.59 458.25 323.26 452.83C322.76 452.017 322.08 451.823 321.22 452.25C314.43 455.65 316.45 468.09 318.64 473.7C324.293 488.187 334.913 497.48 350.5 501.58C353.36 502.333 358.61 502.393 366.25 501.76C366.797 501.713 366.883 501.89 366.51 502.29C362.897 506.11 359.083 509.703 355.07 513.07C298.03 560.86 232.97 593.71 167.17 627.34C151.21 635.493 137.003 643.977 124.55 652.79C104.85 666.72 93.77 686.56 90.21 710.23C90.1982 710.307 90.1629 710.379 90.1091 710.435C90.0552 710.491 89.9854 710.529 89.909 710.545C89.8326 710.56 89.7533 710.551 89.682 710.52C89.6106 710.489 89.5506 710.437 89.51 710.37C81.1367 696.683 78.6933 681.87 82.18 665.93C85.44 651.08 94.12 640.08 105.69 629.44C134.64 602.79 171.5 575.12 205.46 549.22C228.393 531.733 250.393 513.147 271.46 493.46C292 474.27 307.83 454.21 318.37 428.25C323.47 415.68 328.46 402.47 333.78 390.64C339.233 378.5 344.89 366.453 350.75 354.5C354.59 346.67 359.4 335.97 359.16 327.99C358.75 314.01 344.3 304.74 332.17 300.59C286.13 284.83 233 308.29 199.62 339.9C194.38 344.867 189.177 349.883 184.01 354.95C177.28 361.55 163.63 373.37 154.25 363.65C144.02 353.05 156.47 337.29 163.7 329.68C202.77 288.51 254.25 258.61 311 251.26C344.83 246.87 379.53 247.77 413.43 250.7C444.61 253.39 476.16 257.61 500.72 279.02C510.047 287.153 516.457 296.247 519.95 306.3C524.97 320.76 528.4 336.59 542.96 344.22C559.93 353.11 584.34 346.87 599.21 336.55C613.34 326.74 620.07 311.11 640.24 312.53C652.29 313.38 661.45 322.89 660.98 334.97C660.46 348.56 648.69 362.56 634.26 361.47C632.627 361.343 629.29 360.42 624.25 358.7C623.92 358.59 623.566 358.601 623.25 358.73C620.74 359.78 618.1 360.85 615.74 362.33C599.35 372.69 584.48 381.85 567.2 385.15C535.52 391.2 507.08 378.74 490 351.29C489.952 351.21 489.887 351.142 489.809 351.089C489.732 351.037 489.644 351.001 489.552 350.985C489.459 350.969 489.364 350.973 489.272 350.996C489.18 351.019 489.095 351.062 489.02 351.12C467.47 368.2 450.58 391.02 436.53 414.79C434.837 417.657 433.497 420.327 432.51 422.8C432.363 423.167 432.483 423.397 432.87 423.49C464.17 431.52 543.15 449.72 534.09 496.93C531.11 512.5 517.92 529.99 507.31 542.33Z" fill="white"/>
<path d="M507.31 542.33C482.99 570.6 455.62 595.64 427.64 619.81C418.24 627.93 410.72 635.21 404.79 644.29C397.44 655.55 395.61 672.57 395.97 685.65C395.974 685.742 395.95 685.834 395.899 685.912C395.849 685.989 395.775 686.049 395.688 686.082C395.602 686.115 395.507 686.12 395.418 686.097C395.328 686.073 395.249 686.022 395.19 685.95C378.04 665.98 374.85 635.46 390.48 613.71C411.407 584.603 430.523 555.883 447.83 527.55C454.02 517.42 457.64 505.29 443.99 499.42C434.49 495.33 423.88 493.68 413.67 492.43C386.94 489.16 355.2 488.08 334.64 468.15C330.2 463.86 326.59 458.25 323.26 452.83C322.76 452.017 322.08 451.823 321.22 452.25C314.43 455.65 316.45 468.09 318.64 473.7C324.293 488.187 334.913 497.48 350.5 501.58C353.36 502.333 358.61 502.393 366.25 501.76C366.797 501.713 366.883 501.89 366.51 502.29C362.897 506.11 359.083 509.703 355.07 513.07C298.03 560.86 232.97 593.71 167.17 627.34C151.21 635.493 137.003 643.977 124.55 652.79C104.85 666.72 93.77 686.56 90.21 710.23C90.1982 710.307 90.1629 710.379 90.1091 710.435C90.0552 710.491 89.9854 710.529 89.909 710.545C89.8326 710.56 89.7533 710.551 89.682 710.52C89.6106 710.489 89.5506 710.437 89.51 710.37C81.1367 696.683 78.6933 681.87 82.18 665.93C85.44 651.08 94.12 640.08 105.69 629.44C134.64 602.79 171.5 575.12 205.46 549.22C228.393 531.733 250.393 513.147 271.46 493.46C292 474.27 307.83 454.21 318.37 428.25C323.47 415.68 328.46 402.47 333.78 390.64C339.233 378.5 344.89 366.453 350.75 354.5C354.59 346.67 359.4 335.97 359.16 327.99C358.75 314.01 344.3 304.74 332.17 300.59C286.13 284.83 233 308.29 199.62 339.9C194.38 344.867 189.177 349.883 184.01 354.95C177.28 361.55 163.63 373.37 154.25 363.65C144.02 353.05 156.47 337.29 163.7 329.68C202.77 288.51 254.25 258.61 311 251.26C344.83 246.87 379.53 247.77 413.43 250.7C444.61 253.39 476.16 257.61 500.72 279.02C510.047 287.153 516.457 296.247 519.95 306.3C524.97 320.76 528.4 336.59 542.96 344.22C559.93 353.11 584.34 346.87 599.21 336.55C613.34 326.74 620.07 311.11 640.24 312.53C652.29 313.38 661.45 322.89 660.98 334.97C660.46 348.56 648.69 362.56 634.26 361.47C632.627 361.343 629.29 360.42 624.25 358.7C623.92 358.59 623.566 358.601 623.25 358.73C620.74 359.78 618.1 360.85 615.74 362.33C599.35 372.69 584.48 381.85 567.2 385.15C535.52 391.2 507.08 378.74 490 351.29C489.952 351.21 489.887 351.142 489.809 351.089C489.732 351.037 489.644 351.001 489.552 350.985C489.459 350.969 489.364 350.973 489.272 350.996C489.18 351.019 489.095 351.062 489.02 351.12C467.47 368.2 450.58 391.02 436.53 414.79C434.837 417.657 433.497 420.327 432.51 422.8C432.363 423.167 432.483 423.397 432.87 423.49C464.17 431.52 543.15 449.72 534.09 496.93C531.11 512.5 517.92 529.99 507.31 542.33Z" fill="white"/>
<path d="M140.81 299.093L124.31 299.007C118.324 298.976 113.445 303.803 113.414 309.79L113.407 311.13C113.375 317.117 118.203 321.995 124.19 322.027L140.69 322.113C146.676 322.144 151.555 317.317 151.586 311.33L151.593 309.99C151.625 304.003 146.797 299.125 140.81 299.093Z" fill="#F6664B"/>
<path d="M647.44 307.63C641.28 305.86 634.42 304.92 628.46 307.8C628.08 307.987 627.903 307.867 627.93 307.44L628.22 301.53C628.247 301.057 628.497 300.837 628.97 300.87L647.73 302.16C647.802 302.164 647.873 302.182 647.938 302.213C648.004 302.244 648.062 302.288 648.11 302.342C648.159 302.396 648.196 302.459 648.22 302.527C648.244 302.595 648.254 302.668 648.25 302.74L647.92 307.29C647.9 307.603 647.74 307.717 647.44 307.63Z" fill="white"/>
<path d="M642.4 372.6C642.475 372.608 642.544 372.644 642.593 372.702C642.642 372.76 642.666 372.835 642.66 372.91L632.17 490.49C631.954 492.895 630.841 495.119 629.074 496.676C627.308 498.232 625.033 498.992 622.75 498.79L622.45 498.76C621.318 498.66 620.219 498.325 619.214 497.776C618.209 497.228 617.319 496.475 616.593 495.561C615.868 494.647 615.322 493.591 614.987 492.451C614.652 491.312 614.534 490.112 614.64 488.92L625.13 371.35C625.134 371.312 625.145 371.275 625.163 371.241C625.181 371.207 625.206 371.177 625.236 371.153C625.265 371.129 625.3 371.111 625.337 371.1C625.373 371.089 625.412 371.086 625.45 371.09L642.4 372.6Z" fill="white"/>
<path d="M284.44 395.23H63.58C57.2453 395.23 52.11 400.365 52.11 406.7V406.98C52.11 413.315 57.2453 418.45 63.58 418.45H284.44C290.775 418.45 295.91 413.315 295.91 406.98V406.7C295.91 400.365 290.775 395.23 284.44 395.23Z" fill="#F6664B"/>
<path d="M251.68 451.26H113.38C107.139 451.26 102.08 456.319 102.08 462.56V462.94C102.08 469.181 107.139 474.24 113.38 474.24H251.68C257.921 474.24 262.98 469.181 262.98 462.94V462.56C262.98 456.319 257.921 451.26 251.68 451.26Z" fill="#F6664B"/>
<path d="M192.37 509.738L41.11 510.002C34.8582 510.013 29.7989 515.09 29.8098 521.342L29.8106 521.802C29.8215 528.054 34.8985 533.113 41.1503 533.102L192.41 532.838C198.662 532.827 203.721 527.75 203.71 521.498L203.71 521.038C203.699 514.786 198.622 509.727 192.37 509.738Z" fill="#F6664B"/>
<path d="M113.07 568.99H38.19C32.0044 568.99 26.99 574.004 26.99 580.19V580.77C26.99 586.956 32.0044 591.97 38.19 591.97H113.07C119.256 591.97 124.27 586.956 124.27 580.77V580.19C124.27 574.004 119.256 568.99 113.07 568.99Z" fill="#F6664B"/>
</svg>
